<svg width="80" height="80" viewBox="0 0 80 80" fill="none" xmlns="http://www.w3.org/2000/svg">
<path fill-rule="evenodd" clip-rule="evenodd" d="M40 80C62.0914 80 80 62.0914 80 40C80 17.9086 62.0914 0 40 0C17.9086 0 0 17.9086 0 40C0 62.0914 17.9086 80 40 80Z" fill="#C8DDFE"/>
<path d="M24.3231 25.124H24.3213C24.0221 25.1231 23.7786 25.3657 23.7783 25.6652C23.778 25.9647 24.02 26.2082 24.3198 26.2085H24.3216C24.6208 26.2088 24.864 25.9662 24.8643 25.6667C24.8652 25.3675 24.6227 25.1243 24.3231 25.124Z" fill="#5D8EEF"/>
<ellipse cx="53.4486" cy="48.2757" rx="7.93103" ry="7.58621" fill="#5D8EEF"/>
<path d="M53.8787 38.8462C50.973 38.8489 48.2264 40.1732 46.4143 42.4451C44.6022 44.717 43.9221 47.6895 44.5656 50.5233C44.5894 50.6272 44.6147 50.7308 44.6418 50.8341C45.906 55.6271 50.6269 58.6572 55.5114 57.8091C60.3955 56.9614 63.8195 52.5179 63.3942 47.5788C62.9691 42.6398 58.836 38.8471 53.8787 38.8462ZM55.9632 45.4096H57.2896C57.6666 45.4096 57.9719 45.7149 57.9719 46.0919C57.9719 46.4682 57.6666 46.7741 57.2896 46.7741H55.9632C55.6345 48.4713 54.1493 49.6984 52.4201 49.7008H52.183L55.8152 53.1334C55.9931 53.3004 56.0681 53.5499 56.0117 53.7873C55.9553 54.025 55.7765 54.2142 55.5427 54.2837C55.3084 54.3534 55.0555 54.2928 54.8785 54.1249L49.9995 49.5147C49.7962 49.3227 49.7307 49.0262 49.834 48.7666C49.937 48.507 50.1884 48.3364 50.4678 48.3364H52.4201C53.3964 48.3351 54.2605 47.7038 54.5582 46.7741H50.4678C50.0912 46.7741 49.7856 46.4682 49.7856 46.0919C49.7856 45.7149 50.0912 45.4096 50.4678 45.4096H54.5582C54.2605 44.4797 53.3964 43.848 52.4201 43.8468H50.4678C50.0912 43.8468 49.7856 43.5418 49.7856 43.1648C49.7856 42.7879 50.0912 42.4826 50.4678 42.4826H57.2896C57.6666 42.4826 57.9719 42.7879 57.9719 43.1648C57.9719 43.5418 57.6666 43.8468 57.2896 43.8468H55.2432C55.6061 44.3017 55.8532 44.8383 55.9632 45.4096Z" fill="white"/>
<path d="M43.0983 50.1066C42.6184 47.0742 43.4375 43.9799 45.355 41.5821C47.2725 39.1841 50.1109 37.7044 53.1748 37.5057V30.2979H21.4043V46.8908C21.4061 48.6663 22.8453 50.1048 24.6202 50.1066H43.0983Z" fill="#5D8EEF"/>
<path d="M35.3247 25.1587H35.3226C35.0231 25.1584 34.7799 25.4009 34.7793 25.7002C34.779 25.9997 35.0215 26.2428 35.3211 26.2432H35.3226C35.6224 26.2438 35.8656 26.0015 35.8659 25.702C35.8662 25.4025 35.624 25.159 35.3247 25.1587Z" fill="#5D8EEF"/>
<path d="M53.1748 25.586C53.1726 23.8108 51.7341 22.3719 49.9586 22.3701H24.6202C22.8453 22.3723 21.4061 23.8108 21.4043 25.586V28.9332H53.1748V25.586ZM26.2284 25.6726C26.2239 26.7223 25.3719 27.5712 24.3219 27.5727H24.3158C23.2627 27.5712 22.4104 26.7162 22.412 25.6628C22.4135 24.61 23.2685 23.7575 24.3216 23.7596H24.3277C25.3798 23.7642 26.23 24.6195 26.2278 25.6719L26.2284 25.6726ZM31.7287 25.6896C31.7242 26.7393 30.8722 27.5889 29.8225 27.5901H29.8158C28.7682 27.5812 27.9238 26.7281 27.9254 25.6805C27.9269 24.6323 28.774 23.7824 29.8219 23.7767H29.8277C30.8804 23.7812 31.7309 24.6365 31.7287 25.6893V25.6896ZM37.2297 25.7067C37.2248 26.757 36.3728 27.6059 35.3228 27.6071H35.3167C34.2639 27.6041 33.4129 26.7476 33.4159 25.6945C33.4196 24.6414 34.2761 23.7904 35.3289 23.7937C36.3823 23.7971 37.233 24.6536 37.2297 25.7067Z" fill="#5D8EEF"/>
<path d="M29.8236 25.1411H29.8221C29.525 25.1445 29.2864 25.3858 29.2861 25.6826C29.2852 25.9794 29.5235 26.2213 29.82 26.2259H29.8221C30.1189 26.2222 30.3575 25.9812 30.3581 25.6841C30.3584 25.3873 30.1204 25.1457 29.8236 25.1411Z" fill="#5D8EEF"/>
<path d="M41.4 37.2205L39.331 35.1515C39.2335 35.0573 39.1028 35.0052 38.9672 35.0064C38.8316 35.0075 38.7019 35.0619 38.606 35.1578C38.5101 35.2537 38.4557 35.3835 38.4545 35.5191C38.4533 35.6547 38.5054 35.7854 38.5997 35.8829L39.7856 37.069H32.7585C32.6213 37.069 32.4897 37.1235 32.3927 37.2205C32.2957 37.3175 32.2412 37.449 32.2412 37.5862C32.2412 37.7234 32.2957 37.8549 32.3927 37.9519C32.4897 38.0489 32.6213 38.1034 32.7585 38.1034H41.0343C41.1366 38.1034 41.2366 38.0731 41.3216 38.0162C41.4067 37.9594 41.4729 37.8786 41.5121 37.7841C41.5512 37.6896 41.5615 37.5856 41.5415 37.4853C41.5216 37.385 41.4723 37.2928 41.4 37.2205Z" fill="white"/>
<path d="M38.9649 39.4824H30.689C30.5867 39.4824 30.4867 39.5128 30.4017 39.5696C30.3167 39.6265 30.2504 39.7072 30.2112 39.8017C30.1721 39.8962 30.1619 40.0002 30.1818 40.1005C30.2018 40.2009 30.251 40.293 30.3233 40.3654L32.3923 42.4343C32.4898 42.5285 32.6205 42.5807 32.7561 42.5795C32.8917 42.5783 33.0215 42.5239 33.1174 42.428C33.2133 42.3321 33.2677 42.2024 33.2688 42.0668C33.27 41.9311 33.2179 41.8005 33.1237 41.7029L31.9377 40.5169H38.9649C39.102 40.5169 39.2336 40.4624 39.3306 40.3654C39.4276 40.2684 39.4821 40.1368 39.4821 39.9997C39.4821 39.8625 39.4276 39.7309 39.3306 39.6339C39.2336 39.5369 39.102 39.4824 38.9649 39.4824Z" fill="white"/>
</svg>
