<svg width="184" height="64" viewBox="0 0 184 64" fill="none" xmlns="http://www.w3.org/2000/svg">
<g clip-path="url(#clip0_3248_103)">
<path fill-rule="evenodd" clip-rule="evenodd" d="M21.4425 12.0998C19.5596 12.3859 17.7871 13.9585 17.1959 15.868C17.0342 16.3904 17.0234 17.2946 17.0234 30.4932V44.5616L17.2389 45.2447C17.7888 46.9917 19.3166 48.408 21.1024 48.826C22.1929 49.0812 49.6394 49.0081 50.2865 48.7482C51.9876 48.0644 53.0501 47.0252 53.7076 45.4006L53.929 44.8525L53.9557 30.8819C53.9854 15.3104 54.0146 16.0596 53.3275 14.8319C52.6743 13.6647 51.7038 12.8249 50.4314 12.3253L49.7529 12.0586L35.8162 12.0461C28.151 12.0392 21.6829 12.0633 21.4425 12.0998ZM88.6954 13.0019C88.6696 13.0702 88.6593 16.7499 88.673 21.1788L88.6984 29.232H90.0581H91.4177L91.4465 28.6254C91.4809 27.9011 91.4732 27.9029 92.1466 28.4617C96.0045 31.6638 101.801 27.7654 100.992 22.513C100.621 20.0984 99.4119 18.6121 96.9148 17.4991C96.7837 17.4407 96.0617 17.3951 95.2636 17.3951H93.8455L93.1657 17.7551C92.792 17.9531 92.3156 18.271 92.1074 18.4617C91.5123 19.0064 91.5196 19.0361 91.4663 15.8345L91.4177 12.9319L90.0804 12.9048C89.0639 12.8846 88.7315 12.9078 88.6954 13.0019ZM65.4457 13.4078C65.2105 13.6909 65.3572 24.9388 65.6057 25.6738C66.4532 28.1808 68.5456 29.5713 71.4705 29.5713C74.6967 29.5713 76.8708 27.9295 77.4698 25.0411C77.7033 23.9177 77.794 13.8683 77.5747 13.4594C77.426 13.1819 74.978 13.1729 74.7281 13.4491C74.5824 13.6097 74.5673 14.1338 74.5673 18.9708C74.5673 25.0187 74.5682 25.0106 73.7727 25.8053C73.0963 26.481 72.7243 26.6103 71.4593 26.6103C69.922 26.6103 69.1846 26.2035 68.6307 25.0497L68.4028 24.5745L68.3736 19.0442C68.3474 14.0316 68.3297 13.5028 68.184 13.3928C67.9436 13.2115 65.5979 13.2244 65.4457 13.4078ZM84.2294 17.6275C83.9082 17.7886 83.4563 18.1189 83.2254 18.3612C82.69 18.9222 82.6281 18.9145 82.6281 18.2878C82.6281 18.0047 82.5756 17.7212 82.5116 17.6572C82.3895 17.5347 80.356 17.487 80.0627 17.5996C79.9247 17.6524 79.9088 18.2603 79.9088 23.4718V29.2857L81.293 29.2586L82.6767 29.232L82.7313 25.7391L82.7859 22.2463L83.0461 21.6874C83.6812 20.3244 84.7484 19.8557 86.6946 20.0847C87.0111 20.122 87.0623 19.9837 87.1986 18.7234C87.3474 17.347 87.3989 17.4033 85.9499 17.3646C84.8499 17.335 84.7949 17.3436 84.2294 17.6275ZM106.768 17.451C101.737 18.6894 100.886 26.2726 105.484 28.8849C107.385 29.9652 110.096 29.7406 111.537 28.3836C111.925 28.0189 112.056 28.0988 112.056 28.6993C112.056 29.3213 112.099 29.3385 113.529 29.2805L114.726 29.232V23.4104V17.5889L113.585 17.5618C112.145 17.5274 112.056 17.5687 112.056 18.2714C112.056 18.9102 112.003 18.9188 111.35 18.3887C110.235 17.4836 108.27 17.0811 106.768 17.451ZM122.085 17.5313C121.488 17.7521 121.094 18.0081 120.533 18.5425C120.07 18.9832 120.04 18.9596 119.998 18.1228L119.971 17.5889L118.698 17.5622C117.705 17.5412 117.401 17.5648 117.314 17.67C117.231 17.7693 117.208 19.3119 117.227 23.5182L117.252 29.232L118.624 29.2586C120.29 29.2912 120.094 29.7908 120.114 25.4565L120.129 22.0689L120.399 21.4752C121.35 19.3793 124.256 19.3114 125.185 21.3626C125.404 21.8455 125.411 21.9524 125.458 25.5449L125.507 29.232L126.891 29.2586L128.275 29.2857L128.273 25.2322C128.27 20.8961 128.251 20.6908 127.769 19.6809C126.866 17.7908 124.158 16.7667 122.085 17.5313ZM95.6193 20.0073C99.0945 20.9314 99.0055 26.0334 95.4993 26.9136C93.7371 27.3556 91.9858 26.2417 91.5179 24.3808C90.8424 21.6943 93.062 19.3273 95.6193 20.0073ZM109.719 20.0537C113.025 21.0817 112.921 25.8869 109.571 26.902C107.455 27.5433 105.34 25.8564 105.314 23.5075C105.287 20.9692 107.381 19.3269 109.719 20.0537ZM25.7834 24.4092C25.8698 24.4637 25.9072 25.4947 25.9292 28.4098C25.958 32.2506 25.9631 32.3442 26.1704 32.6763C27.2123 34.3477 29.7996 34.3464 30.7176 32.6737L31.0088 32.1427L31.0328 28.3161C31.0509 25.3744 31.0849 24.4719 31.1782 24.4126C31.4104 24.2653 33.9345 24.3168 34.063 24.4714C34.1495 24.5758 34.1701 25.6412 34.1452 28.716L34.1116 32.8219L33.8579 33.48C33.0237 35.645 31.4082 36.5776 28.4838 36.5828C25.3207 36.5888 23.4463 35.377 22.8912 32.9671C22.7102 32.1827 22.6496 24.5243 22.8233 24.4143C22.9807 24.3142 25.6273 24.3095 25.7834 24.4092ZM44.5404 24.52C46.054 24.913 47.3363 25.868 48.0363 27.1249C48.2363 27.4832 48.1451 27.5708 46.9635 28.1533C45.6485 28.802 45.6907 28.7977 45.3875 28.3178C44.657 27.1619 43.0866 26.7353 41.8009 27.3431C38.5819 28.8651 39.6982 34.1201 43.1975 33.9186C44.1797 33.8619 44.706 33.5444 45.5526 32.4963C45.747 32.2561 45.6679 32.2338 47.2094 32.9645C48.226 33.4465 48.2604 33.5071 47.8691 34.1166C45.1429 38.3604 38.1635 37.0029 36.9716 31.9971C35.8923 27.4643 40.0512 23.3554 44.5404 24.52ZM71.7508 32.3837C70.9777 32.4838 70.2377 32.6891 69.6812 32.9585C69.4503 33.0702 69.2284 33.1612 69.1876 33.1612C68.9795 33.1612 67.6405 34.1415 67.0819 34.703C65.5644 36.228 64.6627 38.439 64.6614 40.6384C64.661 41.3807 65.0106 43.254 65.2376 43.727C65.2785 43.8125 65.3937 44.0569 65.4935 44.2704C66.2696 45.9341 68.7589 48.1984 69.8132 48.1997C69.8962 48.1997 70.0054 48.2405 70.0562 48.2903C70.2063 48.4372 71.369 48.6714 72.2961 48.7409C74.8731 48.9342 77.3662 48.0124 79.1563 46.2039C79.9574 45.3946 79.96 45.3327 79.2208 44.7154C78.4782 44.096 78.5457 44.0861 77.6521 44.9461C74.689 47.7963 69.7036 47.3204 67.689 43.9946C66.5999 42.1964 66.5108 39.2405 67.4943 37.5171C68.6965 35.4096 70.586 34.2975 72.9639 34.2979C74.0844 34.2983 75.1289 34.4822 75.3878 34.7245C75.4385 34.7717 75.5348 34.8108 75.6015 34.8108C75.887 34.8108 76.9672 35.5621 77.6435 36.2314C78.4863 37.0648 78.4356 37.06 79.2169 36.3757C79.9703 35.7159 79.9737 35.7387 78.9619 34.7275C77.094 32.861 74.5239 32.0255 71.7508 32.3837ZM86.3674 36.7525C82.0502 37.454 79.8447 42.132 82.0571 45.895C84.8589 50.6603 92.3865 49.3015 93.2074 43.8825C93.2719 43.4555 93.3407 43.0259 93.36 42.9276C93.5011 42.2097 92.8827 40.1491 92.2554 39.247C90.9757 37.4063 88.5832 36.3925 86.3674 36.7525ZM99.4617 36.749C98.7737 36.8959 98.0393 37.304 97.4352 37.8754L96.8564 38.4226L96.828 37.7894C96.7923 36.9969 96.742 36.9604 95.7883 37.0321L95.0112 37.091L94.9627 42.7007C94.9068 49.1568 94.8164 48.588 95.8988 48.588C96.9755 48.588 96.8916 48.9119 96.9277 44.6102L96.9587 40.8746L97.221 40.3188C98.3618 37.902 101.707 37.8857 102.642 40.2926C102.862 40.8592 102.869 40.9739 102.903 44.6102C102.944 48.9145 102.859 48.588 103.945 48.588C104.935 48.588 104.868 48.8496 104.872 44.9547C104.875 42.5354 104.912 41.3858 105.002 40.9717C105.64 38.0377 109.516 37.5721 110.607 40.2982C110.834 40.8648 110.839 40.9395 110.87 44.6566C110.907 48.9334 110.823 48.5846 111.819 48.5867C112.938 48.5889 112.853 48.9514 112.808 44.4122C112.766 40.1594 112.754 40.0554 112.164 38.9055C110.829 36.3044 106.812 35.8968 104.557 38.134C103.997 38.6898 103.994 38.6911 103.825 38.4884C102.805 37.2697 101.911 36.7739 100.608 36.7031C100.2 36.6812 99.6845 36.7018 99.4617 36.749ZM120.263 36.722C119.24 36.8276 118.281 37.2628 117.381 38.0287C116.689 38.6172 116.718 38.6267 116.718 37.8161C116.718 37.0244 116.588 36.9118 115.763 36.9836C115.513 37.0051 115.189 37.027 115.041 37.0325L114.774 37.0424L114.799 45.1197L114.823 53.1969L115.69 53.2248C116.798 53.2613 116.714 53.5174 116.716 50.0838C116.717 48.4785 116.746 47.1369 116.78 47.103C116.814 47.0691 117.084 47.2615 117.379 47.5313C119.654 49.6082 123.523 49.119 125.452 46.5102C128.578 42.2832 125.35 36.1957 120.263 36.722ZM132.791 36.7409C131.405 36.935 130.005 37.7388 129.174 38.8174C129.001 39.0417 128.827 39.2689 128.786 39.3222C127.61 40.8609 127.586 43.8984 128.734 45.9685C130.388 48.9523 134.639 49.7732 137.08 47.5798C137.737 46.9896 137.793 47.0038 137.793 47.7598C137.793 48.2809 137.825 48.4042 137.98 48.4875C138.203 48.6069 139.34 48.6198 139.521 48.5051C139.642 48.4286 139.719 37.188 139.6 37.0695C139.505 36.9737 138.283 36.9483 138.049 37.0368C137.808 37.1283 137.793 37.173 137.793 37.762C137.793 38.5137 137.718 38.5859 137.346 38.1898C136.341 37.1172 134.432 36.5102 132.791 36.7409ZM146.825 36.7151C145.855 36.9041 144.889 37.4153 144.375 38.0111C144.029 38.4123 143.909 38.3174 143.937 37.6644C143.967 36.9655 143.244 36.6872 142.315 37.0399L142.066 37.1344V42.7523C142.066 49.146 141.968 48.567 143.051 48.5777C144.065 48.5876 143.993 48.875 144.028 44.7038C144.057 41.1848 144.066 41.0512 144.279 40.5207C145.292 38.0081 148.81 37.774 149.877 40.1487C150.251 40.982 150.329 41.9078 150.31 45.3233C150.29 48.8737 150.201 48.5846 151.313 48.5867C152.355 48.5884 152.29 48.8874 152.24 44.3323C152.193 40.0786 152.183 40.0056 151.527 38.8209C150.691 37.3139 148.587 36.3719 146.825 36.7151ZM153.192 37.0798C153.07 37.1726 153.083 37.2559 153.279 37.673C153.405 37.9398 153.8 38.8346 154.157 39.662C154.909 41.4043 154.993 41.5967 155.257 42.1844C155.725 43.2231 155.954 43.7459 156.343 44.6587C156.57 45.1923 156.862 45.8688 156.992 46.1627C157.122 46.4561 157.266 46.7834 157.313 46.8904C157.36 46.9969 157.535 47.3887 157.703 47.7607L158.007 48.4368L157.71 49.1937C156.88 51.3145 156.19 51.7522 154.109 51.4816C153.814 51.4434 153.482 52.7162 153.714 52.995C153.913 53.2343 154.698 53.4392 155.414 53.4392C157.211 53.4392 158.419 52.3609 159.325 49.9493C159.455 49.6009 159.673 49.0318 159.809 48.6851C160.146 47.8238 160.448 47.0274 160.764 46.1627C160.91 45.7623 161.083 45.3039 161.148 45.1437C161.213 44.9835 161.357 44.6123 161.467 44.3189C161.577 44.0255 161.782 43.48 161.922 43.1063C162.062 42.7325 162.241 42.2836 162.319 42.1084C162.397 41.9331 162.461 41.7432 162.461 41.6865C162.461 41.6298 162.523 41.4455 162.597 41.2776C162.954 40.4769 164.127 37.2319 164.094 37.1344C164.051 37.0042 162.514 36.9303 162.213 37.0446C162.104 37.0858 161.966 37.2662 161.907 37.4449C161.785 37.8139 160.97 40.0928 160.749 40.6805C160.669 40.894 160.58 41.156 160.553 41.263C160.525 41.3695 160.464 41.5443 160.417 41.6509C160.263 41.9993 159.175 45.0398 159.11 45.3022C159.027 45.6356 158.694 45.5694 158.618 45.2047C158.588 45.0647 158.528 44.8804 158.483 44.7958C158.438 44.7111 158.11 43.9255 157.755 43.0496C157.399 42.1737 157.024 41.2716 156.92 41.0456C156.816 40.8192 156.731 40.6074 156.731 40.5752C156.731 40.5426 156.669 40.3785 156.593 40.2101C156.411 39.8076 155.953 38.7306 155.566 37.7942C155.32 37.1966 155.213 37.0403 155.047 37.0317C153.892 36.9724 153.312 36.9879 153.192 37.0798ZM88.4146 38.6495C90.8953 39.3698 92.0782 42.3244 90.8639 44.7648C89.4466 47.6129 85.5499 47.7963 83.8433 45.0952C81.7758 41.8231 84.7759 37.5927 88.4146 38.6495ZM121.808 38.6443C126.168 39.9657 125.467 46.7297 120.941 47.0115C119.353 47.1107 117.847 46.2967 117.186 44.9826C116.685 43.9847 116.669 43.9156 116.675 42.7184C116.689 39.784 119.142 37.8367 121.808 38.6443ZM135.016 38.6443C138.328 39.6478 138.982 44.4233 136.077 46.389C133.838 47.9041 130.747 46.7091 130.006 44.0419C129.086 40.7256 131.895 37.6984 135.016 38.6443Z" fill="#F7F7F7"/>
<path fill-rule="evenodd" clip-rule="evenodd" d="M6 31.5119V80.0234H92H178V31.5119V-17H92H6V31.5119ZM50.431 12.3251C51.7034 12.8247 52.6739 13.6645 53.3271 14.8317C54.0142 16.0594 53.985 15.3102 53.9553 30.8817L53.9287 44.8523L53.7072 45.4004C53.0497 47.025 51.9872 48.0642 50.2861 48.748C49.639 49.0079 22.1925 49.081 21.102 48.8258C19.3162 48.4078 17.7885 46.9915 17.2385 45.2445L17.0231 44.5615V30.493C17.0231 17.2944 17.0338 16.3902 17.1955 15.8678C17.7867 13.9584 19.5592 12.3857 21.4422 12.0996C21.6825 12.0631 28.1506 12.039 35.8158 12.0459L49.7525 12.0584L50.431 12.3251ZM91.4659 15.8343C91.5193 19.0359 91.5119 19.0062 92.1071 18.4616C92.3152 18.2708 92.7916 17.9529 93.1653 17.7549L93.8451 17.3949H95.2633C96.0614 17.3949 96.7833 17.4405 96.9145 17.4989C100.216 18.9706 101.533 21.457 100.891 25.0065C100.176 28.9573 95.1407 30.9466 92.1462 28.4615C91.4728 27.9027 91.4806 27.901 91.4462 28.6252L91.4174 29.2318H90.0577H88.698L88.6727 21.1786C88.6589 16.7497 88.6692 13.07 88.695 13.0017C88.7311 12.9076 89.0635 12.8844 90.0801 12.9046L91.4174 12.9317L91.4659 15.8343ZM68.1836 13.3926C68.3294 13.5026 68.347 14.0314 68.3732 19.044L68.4025 24.5744L68.6304 25.0495C69.4994 26.8592 72.3043 27.2716 73.7723 25.8051C74.5678 25.0104 74.5669 25.0185 74.5669 18.9706C74.5669 14.1336 74.582 13.6095 74.7278 13.4489C74.9776 13.1727 77.4256 13.1817 77.5744 13.4592C77.7937 13.8681 77.7029 23.9175 77.4694 25.0409C76.2689 30.8298 67.5063 31.2967 65.6053 25.6736C65.3568 24.9386 65.2101 13.6907 65.4454 13.4076C65.5976 13.2242 67.9432 13.2113 68.1836 13.3926ZM87.2016 17.51C87.2902 17.599 87.2893 17.8765 87.1982 18.7232C87.0619 19.9835 87.0107 20.1218 86.6942 20.0845C84.748 19.8555 83.6808 20.3242 83.0457 21.6872L82.7855 22.2461L82.7309 25.7389L82.6763 29.2318L81.2926 29.2584L79.9084 29.2855V23.4716C79.9084 18.2601 79.9243 17.6522 80.0623 17.5994C80.3556 17.4869 82.3891 17.5345 82.5112 17.657C82.5753 17.721 82.6277 18.0045 82.6277 18.2876C82.6277 18.9143 82.6896 18.9221 83.225 18.361C83.9938 17.5552 84.6135 17.3288 85.9495 17.3644C86.6598 17.3833 87.1294 17.4379 87.2016 17.51ZM110.21 17.6875C110.557 17.846 111.07 18.1613 111.35 18.3885C112.003 18.9186 112.055 18.91 112.055 18.2713C112.055 17.5685 112.145 17.5272 113.584 17.5616L114.726 17.5887V23.4102V29.2318L113.529 29.2803C112.099 29.3383 112.055 29.3211 112.055 28.6991C112.055 28.0986 111.924 28.0187 111.537 28.3834C110.096 29.7404 107.385 29.965 105.484 28.8847C101.346 26.5341 101.476 19.9144 105.699 17.876C107.03 17.2334 109.031 17.1501 110.21 17.6875ZM125.796 17.7356C126.99 18.3318 127.87 19.447 128.169 20.7447C128.23 21.0046 128.271 22.8045 128.272 25.232L128.274 29.2855L126.891 29.2584L125.506 29.2318L125.458 25.5448C125.411 21.9522 125.404 21.8453 125.185 21.3624C124.256 19.3112 121.35 19.3791 120.398 21.475L120.129 22.0687L120.113 25.4563C120.094 29.7906 120.289 29.291 118.624 29.2584L117.251 29.2318L117.226 23.518C117.208 19.3117 117.231 17.7691 117.313 17.6698C117.401 17.5646 117.705 17.541 118.698 17.562L119.971 17.5887L119.998 18.1226C120.04 18.9594 120.07 18.983 120.533 18.5423C121.883 17.2566 124.142 16.9104 125.796 17.7356ZM93.9006 20.0235C92.0434 20.5222 91.0183 22.396 91.5175 24.3806C92.5268 28.3924 98.1 27.6136 98.115 23.4588C98.1236 20.9844 96.1904 19.4083 93.9006 20.0235ZM107.764 20.0114C105.319 20.6842 104.45 23.9425 106.198 25.8845C108.18 28.087 111.788 26.8807 112.106 23.9089C112.384 21.3139 110.189 19.3443 107.764 20.0114ZM22.8229 24.4141C22.6492 24.5241 22.7098 32.1825 22.8908 32.9669C23.446 35.3768 25.3203 36.5886 28.4834 36.5826C31.4078 36.5774 33.0234 35.6448 33.8576 33.4798L34.1112 32.8217L34.1448 28.7158C34.1697 25.641 34.1491 24.5756 34.0627 24.4713C33.9341 24.3166 31.41 24.2651 31.1778 24.4124C31.0845 24.4717 31.0505 25.3742 31.0324 28.3159L31.0084 32.1425L30.7173 32.6735C29.7992 34.3462 27.2119 34.3475 26.17 32.6761C25.9628 32.344 25.9576 32.2504 25.9288 28.4096C25.9069 25.4945 25.8694 24.4635 25.783 24.409C25.6269 24.3093 22.9803 24.314 22.8229 24.4141ZM41.61 24.5254C34.93 26.0663 35.363 35.699 42.151 36.5676C44.5843 36.879 46.6677 35.9859 47.8687 34.1164C48.26 33.5069 48.2256 33.4463 47.209 32.9643C45.6675 32.2336 45.7466 32.2559 45.5523 32.4961C44.7056 33.5442 44.1793 33.8617 43.1972 33.9184C39.6978 34.1199 38.5815 28.8649 41.8005 27.3429C43.0862 26.7351 44.6566 27.1617 45.3871 28.3176C45.6903 28.7975 45.6482 28.8018 46.9631 28.1531C48.1447 27.5706 48.2359 27.483 48.0359 27.1247C46.8393 24.9764 44.23 23.921 41.61 24.5254ZM75.1461 32.5433C76.8163 33.0249 77.8504 33.6168 78.9615 34.7273C79.9733 35.7385 79.9699 35.7157 79.2165 36.3755C78.4352 37.0598 78.486 37.0646 77.6432 36.2312C76.9668 35.5619 75.8866 34.8106 75.6011 34.8106C75.5344 34.8106 75.4381 34.7715 75.3874 34.7243C75.1285 34.482 74.0841 34.2981 72.9635 34.2977C70.5856 34.2973 68.6962 35.4094 67.4939 37.5169C66.5105 39.2404 66.5995 42.1962 67.6887 43.9944C69.7032 47.3202 74.6886 47.7961 77.6518 44.9459C78.5453 44.0859 78.4778 44.0958 79.2204 44.7152C79.9596 45.3325 79.957 45.3944 79.1559 46.2037C77.3658 48.0122 74.8727 48.9341 72.2957 48.7407C71.3686 48.6712 70.2059 48.437 70.0558 48.2901C70.0051 48.2403 69.8958 48.1995 69.8129 48.1995C68.7585 48.1982 66.2692 45.9339 65.4931 44.2702C65.3933 44.0567 65.2781 43.8123 65.2372 43.7268C64.2349 41.6408 64.6077 38.221 66.0912 35.8961C66.6984 34.9446 68.7172 33.1611 69.1872 33.1611C69.2281 33.1611 69.4499 33.07 69.6809 32.9583C71.0027 32.3191 73.6669 32.1168 75.1461 32.5433ZM88.9406 36.9155C91.2806 37.568 92.8536 39.3615 93.2474 41.8259C93.3283 42.3337 93.379 42.829 93.3597 42.9274C93.3403 43.0257 93.2715 43.4553 93.207 43.8823C92.3861 49.3013 84.8586 50.6601 82.0567 45.8948C79.2643 41.1446 83.6395 35.4369 88.9406 36.9155ZM101.725 36.9035C102.584 37.2699 102.798 37.4031 103.216 37.8335C103.457 38.0818 103.731 38.3765 103.825 38.4882C103.994 38.6909 103.996 38.6896 104.557 38.1338C106.811 35.8966 110.829 36.3042 112.164 38.9053C112.754 40.0552 112.766 40.1592 112.808 44.412C112.852 48.9512 112.938 48.5887 111.818 48.5865C110.822 48.5844 110.907 48.9332 110.87 44.6564C110.838 40.9393 110.834 40.8646 110.607 40.298C109.516 37.5719 105.639 38.0375 105.002 40.9715C104.912 41.3856 104.874 42.5352 104.872 44.9545C104.868 48.8494 104.935 48.5878 103.945 48.5878C102.858 48.5878 102.944 48.9143 102.903 44.61C102.868 40.9737 102.861 40.859 102.641 40.2924C101.706 37.8855 98.3614 37.9018 97.2206 40.3186L96.9583 40.8744L96.9274 44.61C96.8913 48.9117 96.9751 48.5878 95.8984 48.5878C94.8161 48.5878 94.9064 49.1566 94.9623 42.7006L95.0109 37.0908L95.7879 37.0319C96.7416 36.9602 96.7919 36.9967 96.8276 37.7893L96.856 38.4224L97.4348 37.8752C98.6117 36.7622 100.428 36.3506 101.725 36.9035ZM122.544 36.9567C126.422 38.1033 127.951 43.1301 125.452 46.51C123.523 49.1188 119.653 49.6081 117.379 47.5311C117.083 47.2613 116.814 47.0689 116.779 47.1028C116.745 47.1367 116.716 48.4783 116.716 50.0836C116.714 53.5172 116.798 53.2611 115.689 53.2246L114.823 53.1967L114.799 45.1195L114.774 37.0422L115.041 37.0324C115.189 37.0268 115.513 37.0049 115.762 36.9834C116.588 36.9116 116.717 37.0242 116.717 37.8159C116.717 38.6265 116.689 38.617 117.38 38.0285C118.882 36.7506 120.625 36.3889 122.544 36.9567ZM135.336 36.9606C136.007 37.175 136.915 37.7304 137.346 38.1896C137.717 38.5857 137.792 38.5135 137.792 37.7618C137.792 37.1728 137.808 37.1281 138.049 37.0366C138.283 36.9482 139.504 36.9735 139.6 37.0693C139.718 37.1879 139.641 48.4285 139.521 48.5049C139.34 48.6196 138.203 48.6067 137.98 48.4873C137.824 48.404 137.792 48.2807 137.792 47.7596C137.792 47.0036 137.737 46.9894 137.08 47.5796C134.638 49.773 130.387 48.9521 128.734 45.9683C127.586 43.8982 127.61 40.8607 128.786 39.322C129.355 38.5771 129.561 38.3468 129.979 37.9924C131.403 36.7849 133.513 36.3785 135.336 36.9606ZM149.204 36.9228C150.632 37.4409 151.538 38.413 152.028 39.9526C152.24 40.6201 152.366 48.0204 152.172 48.3829C152.074 48.5646 151.977 48.5878 151.313 48.5865C150.201 48.5844 150.29 48.8735 150.309 45.3231C150.328 41.9076 150.251 40.9818 149.877 40.1485C148.81 37.7738 145.292 38.0079 144.279 40.5205C144.065 41.051 144.057 41.1846 144.027 44.7036C143.992 48.8748 144.065 48.5874 143.05 48.5775C141.968 48.5668 142.065 49.1458 142.065 42.7521V37.1342L142.315 37.0397C143.244 36.687 143.966 36.9653 143.936 37.6642C143.908 38.3172 144.029 38.4121 144.374 38.0109C145.388 36.8356 147.593 36.339 149.204 36.9228ZM155.046 37.0315C155.213 37.0401 155.319 37.1964 155.566 37.794C155.953 38.7304 156.411 39.8074 156.592 40.2099C156.669 40.3783 156.73 40.5424 156.73 40.575C156.73 40.6073 156.816 40.819 156.92 41.0454C157.024 41.2714 157.399 42.1735 157.754 43.0494C158.109 43.9253 158.437 44.7109 158.482 44.7956C158.527 44.8802 158.588 45.0645 158.618 45.2045C158.694 45.5692 159.027 45.6354 159.109 45.302C159.174 45.0396 160.262 41.9991 160.416 41.6507C160.464 41.5441 160.525 41.3693 160.552 41.2628C160.58 41.1558 160.668 40.8938 160.748 40.6803C160.969 40.0926 161.785 37.8137 161.907 37.4447C161.966 37.266 162.103 37.0856 162.213 37.0444C162.514 36.9301 164.05 37.004 164.094 37.1342C164.126 37.2317 162.954 40.4767 162.597 41.2774C162.522 41.4453 162.461 41.6296 162.461 41.6863C162.461 41.743 162.397 41.9329 162.318 42.1082C162.241 42.2834 162.062 42.7323 161.921 43.1061C161.781 43.4798 161.577 44.0253 161.466 44.3187C161.356 44.6121 161.213 44.9833 161.148 45.1435C161.083 45.3037 160.91 45.7621 160.763 46.1625C160.447 47.0272 160.146 47.8236 159.809 48.6849C159.673 49.0316 159.455 49.6008 159.324 49.9491C158.419 52.3607 157.21 53.439 155.414 53.439C154.697 53.439 153.912 53.2341 153.714 52.9948C153.482 52.716 153.814 51.4432 154.108 51.4814C156.19 51.752 156.879 51.3143 157.71 49.1935L158.007 48.4366L157.703 47.7605C157.535 47.3885 157.36 46.9967 157.313 46.8902C157.266 46.7832 157.121 46.4559 156.992 46.1625C156.862 45.8686 156.57 45.1921 156.342 44.6585C155.953 43.7457 155.724 43.2229 155.257 42.1842C154.993 41.5965 154.909 41.4041 154.157 39.6618C153.8 38.8344 153.405 37.9396 153.279 37.6728C152.945 36.9645 153.042 36.9288 155.046 37.0315ZM86.1675 38.6411C82.7404 39.7228 82.0945 44.3046 85.0817 46.3429C88.167 48.4482 92.1303 45.4446 91.2303 41.6838C90.6885 39.4195 88.2822 37.9735 86.1675 38.6411ZM119.534 38.6398C117.723 39.1574 116.684 40.6382 116.674 42.7182C116.668 43.9154 116.684 43.9845 117.186 44.9824C118.487 47.5706 122.421 47.7188 124.034 45.2406C126.191 41.9256 123.23 37.5831 119.534 38.6398ZM132.58 38.6823C128.251 40.1566 129.316 47.0306 133.874 47.0349C137.98 47.0388 139.49 41.1287 135.918 39.0376C134.976 38.486 133.589 38.3382 132.58 38.6823Z" fill="#1B1B1B"/>
</g>
<defs>
<clipPath id="clip0_3248_103">
<rect width="184" height="64" fill="white"/>
</clipPath>
</defs>
</svg>
