<svg width="80" height="80" viewBox="0 0 80 80" fill="none" xmlns="http://www.w3.org/2000/svg">
<path fill-rule="evenodd" clip-rule="evenodd" d="M40 80C62.0914 80 80 62.0914 80 40C80 17.9086 62.0914 0 40 0C17.9086 0 0 17.9086 0 40C0 62.0914 17.9086 80 40 80Z" fill="#C8DDFE"/>
<path d="M22.0261 20.6819C21.6617 20.6883 21.3146 20.8387 21.0607 21.1002C20.8068 21.3616 20.6667 21.7129 20.671 22.0773V57.9367C20.6696 58.3026 20.8136 58.6539 21.0712 58.9136C21.3289 59.1732 21.6791 59.32 22.0449 59.3215H57.9178C58.1015 59.3256 58.2841 59.2929 58.4551 59.2254C58.626 59.1579 58.7817 59.057 58.913 58.9285C59.0444 58.8 59.1488 58.6466 59.22 58.4772C59.2913 58.3078 59.328 58.1259 59.328 57.9422C59.328 57.7584 59.2913 57.5765 59.22 57.4071C59.1488 57.2378 59.0444 57.0843 58.913 56.9558C58.7817 56.8273 58.626 56.7264 58.4551 56.6589C58.2841 56.5914 58.1015 56.5588 57.9178 56.5628H23.4323V22.0773C23.4345 21.8925 23.3995 21.7093 23.3295 21.5383C23.2594 21.3673 23.1558 21.212 23.0246 21.0819C22.8934 20.9517 22.7375 20.8493 22.5659 20.7805C22.3944 20.7118 22.2108 20.6783 22.0261 20.6819ZM57.8854 29.6501C57.528 29.6615 57.189 29.8112 56.9398 30.0677L42.7858 44.2219L36.8617 37.7051C36.6156 37.4356 36.2727 37.2746 35.9082 37.2574C35.5436 37.2402 35.1871 37.3682 34.9167 37.6133L26.6381 45.1995C26.5044 45.3219 26.396 45.4695 26.3193 45.6338C26.2426 45.7981 26.1989 45.9758 26.1909 46.1569C26.1829 46.338 26.2106 46.519 26.2726 46.6894C26.3345 46.8598 26.4293 47.0164 26.5518 47.1501C26.6742 47.2839 26.8217 47.3922 26.986 47.4689C27.1503 47.5456 27.3281 47.5892 27.5092 47.5972C27.6904 47.6052 27.8713 47.5773 28.0417 47.5154C28.2121 47.4535 28.3686 47.3586 28.5024 47.2362L35.7626 40.5874L41.7189 47.1445C41.8442 47.2826 41.9961 47.3939 42.1655 47.4716C42.3349 47.5494 42.5183 47.5918 42.7046 47.5967C42.8909 47.6016 43.0762 47.5687 43.2495 47.5C43.4227 47.4312 43.5802 47.328 43.7125 47.1967L58.8849 32.0163C59.0821 31.8224 59.2164 31.5737 59.2705 31.3024C59.3245 31.0312 59.2958 30.7501 59.1881 30.4954C59.0803 30.2407 58.8985 30.0242 58.6662 29.8741C58.434 29.724 58.1619 29.6471 57.8854 29.6536V29.6501Z" fill="#5D8EEF"/>
<g clip-path="url(#clip0_2541_5394)">
<circle cx="61.3795" cy="27.5861" r="5.51724" fill="#C8DDFE"/>
<ellipse cx="61.5325" cy="27.4329" rx="4.13793" ry="4.13793" fill="#5D8EEF"/>
<path d="M61.3798 22.6821C60.4098 22.6821 59.4617 22.9698 58.6552 23.5086C57.8487 24.0475 57.2201 24.8135 56.8489 25.7096C56.4777 26.6057 56.3806 27.5918 56.5698 28.5431C56.7591 29.4944 57.2261 30.3683 57.912 31.0541C58.5979 31.74 59.4717 32.2071 60.423 32.3963C61.3744 32.5856 62.3604 32.4884 63.2566 32.1172C64.1527 31.7461 64.9186 31.1175 65.4575 30.311C65.9964 29.5045 66.284 28.5563 66.284 27.5863C66.284 26.2857 65.7673 25.0383 64.8476 24.1185C63.9279 23.1988 62.6805 22.6821 61.3798 22.6821ZM64.5829 25.9404L60.5553 29.9649L58.1767 27.5863C58.0954 27.5051 58.0498 27.3948 58.0498 27.2798C58.0498 27.1649 58.0954 27.0546 58.1767 26.9733C58.258 26.892 58.3683 26.8464 58.4833 26.8464C58.5982 26.8464 58.7085 26.892 58.7898 26.9733L60.5614 28.745L63.976 25.3335C64.0162 25.2932 64.064 25.2613 64.1166 25.2395C64.1692 25.2177 64.2256 25.2065 64.2825 25.2065C64.3394 25.2065 64.3958 25.2177 64.4484 25.2395C64.501 25.2613 64.5487 25.2932 64.589 25.3335C64.6292 25.3737 64.6612 25.4215 64.683 25.4741C64.7047 25.5267 64.716 25.5831 64.716 25.64C64.716 25.6969 64.7047 25.7533 64.683 25.8059C64.6612 25.8585 64.6292 25.9062 64.589 25.9465L64.5829 25.9404Z" fill="white"/>
</g>
<defs>
<clipPath id="clip0_2541_5394">
<rect width="11.0345" height="11.0345" fill="white" transform="translate(55.8623 22.0688)"/>
</clipPath>
</defs>
</svg>
