<svg width="184" height="64" viewBox="0 0 184 64" fill="none" xmlns="http://www.w3.org/2000/svg">
<path d="M14 32.8745C14.1502 31.9281 14.2721 30.9723 14.4693 30.0353C15.9609 23.0356 21.7118 17.5259 28.8045 16.2701C38.4864 14.5554 47.6712 20.768 49.6414 30.3443C51.6585 40.1459 45.091 49.835 35.2591 51.5592C34.4897 51.6903 33.7205 51.7934 32.9418 51.9057C32.3226 51.9057 31.7033 51.9057 31.0843 51.9057C30.3151 51.7934 29.5362 51.6997 28.7762 51.5592C21.7118 50.313 15.9515 44.775 14.4693 37.7941C14.2721 36.857 14.1596 35.9011 14 34.9548C14 34.2615 14 33.568 14 32.8745ZM38.1393 28.1612C38.1674 28.0208 38.2144 27.8708 38.233 27.7208C38.3551 26.6713 38.4208 25.6124 38.6083 24.5816C38.7115 24.0195 38.5145 23.8694 38.0361 23.7291C36.0659 23.1762 34.0771 23.0075 32.0413 23.3073C25.521 24.2631 22.1621 29.8105 22.9973 35.4702C24.292 44.2877 33.1482 46.293 38.8242 43.3788C39.0117 43.2851 39.1994 42.9759 39.1994 42.7603C39.2275 39.9773 39.2089 37.1848 39.2275 34.4021C39.2275 33.9522 39.0679 33.8395 38.6553 33.8489C37.7078 33.8678 36.7602 33.8489 35.8127 33.8584C34.7712 33.8678 34.8276 33.7178 34.8276 34.8142C34.8276 36.4541 34.8276 38.094 34.8276 39.7336C34.8276 39.9962 34.8369 40.249 34.4618 40.2771C32.8291 40.4177 31.2813 40.1929 29.949 39.1715C27.9319 37.6158 27.2096 35.4982 27.5098 33.0337C27.8194 30.5038 29.1609 28.7327 31.6095 27.8614C32.9137 27.4023 34.274 27.4304 35.6155 27.5991C36.4412 27.7113 37.2574 27.9644 38.1393 28.1612Z" fill="#E78751"/>
<path d="M102.488 25.0035C108.042 24.9474 111.363 28.9766 111.41 33.7274C111.466 38.9841 107.807 42.7232 102.816 42.8074C97.0183 42.9102 93.5848 38.8905 93.547 33.896C93.5194 28.6862 97.2436 25.0035 102.488 25.0035ZM102.469 39.2653C105.565 39.2653 107.751 37.0444 107.751 33.8774C107.751 30.7568 105.556 28.4892 102.516 28.48C99.4481 28.4706 97.2342 30.7384 97.2342 33.8868C97.2342 37.0258 99.411 39.2559 102.469 39.2653Z" fill="#E78751"/>
<path d="M90.4707 42.7883C89.185 42.7883 87.9938 42.8069 86.8117 42.7696C86.6237 42.7602 86.38 42.5354 86.2862 42.3573C85.2447 40.4365 84.2221 38.506 83.2278 36.5663C82.993 36.1072 82.7212 35.9105 82.2146 35.9666C81.8766 36.0041 81.5292 35.9761 81.1164 35.9761C81.1164 38.2717 81.1164 40.5021 81.1164 42.7977C80 42.7977 78.9403 42.8072 77.8893 42.7883C77.7956 42.7883 77.664 42.6385 77.6269 42.5354C77.5797 42.4043 77.608 42.2448 77.608 42.1044C77.608 36.6507 77.608 31.2066 77.608 25.7529C77.608 25.0221 77.608 25.0221 78.3116 25.0221C80.4979 25.0221 82.6929 24.9938 84.8791 25.0408C87.1773 25.0877 88.9226 26.4276 89.5979 28.5923C90.3203 30.888 89.6167 33.4181 87.8433 34.7018C87.4121 35.0203 86.896 35.2356 86.3611 35.5357C87.7122 37.8969 89.0724 40.2959 90.4707 42.7883ZM81.0982 30.5412C81.0982 31.0472 81.1164 31.5626 81.0888 32.0686C81.0699 32.434 81.1825 32.5934 81.5765 32.5746C82.4675 32.5465 83.3586 32.5746 84.2599 32.5651C85.3947 32.5465 86.1547 31.7218 86.1736 30.5412C86.183 29.3698 85.4136 28.5173 84.2969 28.4798C83.387 28.4517 82.477 28.489 81.567 28.4703C81.2014 28.4609 81.0888 28.6109 81.1077 28.9575C81.1164 29.4917 81.0982 30.0166 81.0982 30.5412Z" fill="#E78751"/>
<path d="M151.312 35.5169C152.644 37.8875 153.995 40.2769 155.374 42.732C155.196 42.7601 155.065 42.7881 154.933 42.7881C153.93 42.7881 152.926 42.7787 151.922 42.7976C151.565 42.807 151.368 42.6945 151.209 42.3666C150.252 40.5208 149.238 38.712 148.328 36.8567C147.981 36.1351 147.55 35.8259 146.78 35.957C146.555 35.9948 146.321 35.9853 146.048 36.004C146.048 38.2716 146.048 40.4925 146.048 42.7881C144.932 42.7881 143.872 42.7976 142.803 42.7787C142.718 42.7787 142.596 42.6383 142.568 42.5445C142.531 42.3947 142.54 42.2166 142.54 42.0573C142.54 36.6319 142.54 31.197 142.54 25.7716C142.54 25.0125 142.54 25.0125 143.281 25.0125C145.448 25.0125 147.625 24.9845 149.792 25.022C152.1 25.0595 153.836 26.3805 154.539 28.5358C155.28 30.8222 154.586 33.3521 152.832 34.6547C152.381 34.9826 151.856 35.2168 151.312 35.5169ZM146.039 32.5744C147.174 32.5744 148.216 32.5933 149.248 32.565C150.317 32.5369 151.049 31.7497 151.096 30.5972C151.143 29.4916 150.43 28.5638 149.379 28.4983C148.384 28.4421 147.371 28.4702 146.377 28.4888C146.264 28.4888 146.048 28.6858 146.048 28.7889C146.03 30.0351 146.039 31.2626 146.039 32.5744Z" fill="#E78751"/>
<path d="M69.0893 33.9053C70.243 33.9053 71.2939 33.8958 72.3541 33.9239C72.4571 33.9239 72.6448 34.1395 72.6448 34.2614C72.6635 36.6508 72.6635 39.0309 72.6448 41.4204C72.6448 41.5702 72.4852 41.7858 72.3447 41.8608C67.6444 44.2876 60.3922 42.6199 59.1631 35.6199C58.5252 31.9936 59.5103 28.8172 62.5876 26.5963C65.4021 24.5629 68.5732 24.4318 71.8284 25.3876C71.9694 25.4251 72.1288 25.7343 72.1102 25.9124C72.0256 26.9244 71.8943 27.9363 71.7816 28.9202C70.8717 28.7516 69.9992 28.5173 69.1079 28.4329C66.9125 28.2362 64.9612 28.7608 63.6478 30.6913C61.6401 33.6427 62.8878 37.9347 66.0962 39.0403C66.8657 39.3026 67.7381 39.2745 68.5638 39.3588C68.9577 39.3963 69.0985 39.1901 69.0985 38.7966C69.0798 37.4098 69.0893 36.0231 69.0893 34.6455C69.0893 34.4204 69.0893 34.2051 69.0893 33.9053Z" fill="#E78751"/>
<path d="M138.149 42.7696C135.062 42.7696 132.06 42.7696 128.983 42.7696C128.974 42.5823 128.945 42.3948 128.945 42.2073C128.945 36.7257 128.945 31.2439 128.945 25.7623C128.945 25.0127 128.945 25.0127 129.696 25.0127C132.173 25.0127 134.659 25.0127 137.136 25.0127C137.333 25.0127 137.53 25.0127 137.774 25.0127C137.774 26.1744 137.774 27.2897 137.774 28.489C137.22 28.489 136.685 28.489 136.141 28.489C135.062 28.489 133.993 28.489 132.914 28.489C132.67 28.489 132.435 28.4798 132.445 28.836C132.454 29.9041 132.445 30.9816 132.445 32.125C134.012 32.125 135.55 32.125 137.117 32.125C137.117 33.3242 137.117 34.4395 137.117 35.6482C135.578 35.6482 134.04 35.6482 132.473 35.6482C132.473 36.8944 132.473 38.0469 132.473 39.2556C132.717 39.2745 132.952 39.2931 133.177 39.2931C134.64 39.2931 136.094 39.312 137.558 39.2837C138.008 39.2745 138.168 39.4056 138.149 39.8647C138.121 40.8205 138.149 41.7669 138.149 42.7696Z" fill="#E78751"/>
<path d="M167.71 25.6126C167.56 26.7466 167.419 27.8149 167.269 28.9016C166.472 28.7049 165.712 28.4707 164.933 28.3301C164.455 28.2364 163.948 28.2364 163.46 28.2645C162.625 28.3209 162.063 28.8547 161.856 29.6699C161.669 30.4198 161.931 31.1131 162.635 31.5441C163.02 31.7783 163.46 31.9191 163.864 32.1253C164.811 32.5938 165.796 32.9872 166.679 33.5588C168.564 34.7863 169.324 36.5482 168.883 38.7875C168.48 40.8208 166.866 42.3951 164.746 42.798C162.494 43.229 160.365 42.77 158.319 41.8141C158.188 41.7486 158.029 41.5518 158.037 41.4299C158.15 40.3243 158.301 39.2281 158.45 38.0378C158.676 38.169 158.835 38.2626 159.004 38.3471C160.458 39.1437 162.006 39.5371 163.676 39.359C164.577 39.2654 165.243 38.6938 165.402 37.9253C165.553 37.1851 165.149 36.4354 164.324 36.0325C163.657 35.7044 162.935 35.489 162.26 35.1706C161.594 34.8427 160.918 34.5052 160.308 34.0742C158.553 32.8469 157.925 31.1225 158.375 29.0517C158.817 26.9902 160.054 25.5846 162.109 25.0411C164.032 24.5443 165.872 24.9663 167.71 25.6126Z" fill="#E78751"/>
<path d="M119.61 42.7698C118.409 42.7698 117.302 42.7698 116.139 42.7698C116.139 36.8757 116.139 30.9912 116.139 25.0409C116.317 25.0315 116.514 25.0034 116.702 25.0034C119.235 25.0034 121.768 25.0129 124.311 24.994C124.827 24.9848 124.976 25.1532 124.958 25.65C124.92 26.3997 124.92 27.1493 124.958 27.8895C124.986 28.3861 124.798 28.508 124.329 28.4986C122.978 28.4705 121.627 28.4892 120.276 28.4892C120.079 28.4892 119.882 28.4892 119.638 28.4892C119.638 29.7262 119.638 30.8976 119.638 32.1343C121.121 32.1343 122.594 32.1343 124.132 32.1343C124.132 33.2588 124.142 34.3272 124.114 35.3953C124.114 35.4889 123.813 35.6578 123.645 35.6578C122.519 35.6859 121.383 35.667 120.248 35.667C120.051 35.667 119.854 35.667 119.601 35.667C119.61 38.0565 119.61 40.3803 119.61 42.7698Z" fill="#E78751"/>
<path d="M50.0175 18.8564C48.3662 18.8564 47.0996 17.5633 47.0996 15.8953C47.1091 14.2931 48.4226 13 50.0362 13C51.6686 13.0092 52.9633 14.3212 52.9539 15.9703C52.9447 17.5821 51.65 18.8564 50.0175 18.8564Z" fill="#E78751"/>
</svg>
