<svg width="80" height="80" viewBox="0 0 80 80" fill="none" xmlns="http://www.w3.org/2000/svg">
<path fill-rule="evenodd" clip-rule="evenodd" d="M40 80C62.0914 80 80 62.0914 80 40C80 17.9086 62.0914 0 40 0C17.9086 0 0 17.9086 0 40C0 62.0914 17.9086 80 40 80Z" fill="#C8DDFE"/>
<g clip-path="url(#clip0_2541_5375)">
<rect x="29.7432" y="20.7612" width="19.8256" height="39.1677" fill="white"/>
<path d="M46.7994 19.3105H32.5873C30.1711 19.3105 28.1182 21.2807 28.1182 23.6962V56.9989C28.1182 59.4144 30.1277 61.3795 32.5439 61.3795L46.7794 61.3641C49.1952 61.3641 51.1717 59.3987 51.1717 56.9829L51.1924 23.6938C51.1921 21.2696 49.2253 19.3105 46.7994 19.3105ZM37.6402 21.9399H41.7636C42.1258 21.9399 42.4208 22.234 42.4208 22.5972C42.4208 22.9604 42.1258 23.2544 41.7636 23.2544H37.6402C37.277 23.2544 36.983 22.9604 36.983 22.5972C36.983 22.234 37.277 21.9399 37.6402 21.9399ZM35.1626 22.1491C35.4062 21.9058 35.8496 21.9025 36.0928 22.1491C36.2148 22.2707 36.287 22.4415 36.287 22.6159C36.287 22.787 36.2148 22.9574 36.0928 23.0793C35.9715 23.2013 35.8001 23.2732 35.6294 23.2732C35.4553 23.2732 35.2879 23.2013 35.1626 23.0793C35.0413 22.9577 34.9721 22.787 34.9721 22.6159C34.9718 22.4415 35.0413 22.2707 35.1626 22.1491ZM39.5693 60.0767C38.4846 60.0767 37.6025 59.1939 37.6025 58.1096C37.6025 57.025 38.4846 56.1425 39.5693 56.1425C40.6539 56.1425 41.536 57.025 41.536 58.1096C41.536 59.1939 40.6535 60.0767 39.5693 60.0767ZM49.1521 54.8056H30.4187V25.5553H49.1521V54.8056Z" fill="#5D8EEF"/>
<path fill-rule="evenodd" clip-rule="evenodd" d="M39.8816 44.2165V42.8941H39.8815C39.1893 42.8941 38.5536 42.6477 38.0573 42.2379C38.0447 42.2277 38.0329 42.2167 38.0207 42.2062C37.998 42.1869 37.9751 42.1677 37.9531 42.1477C37.3752 41.6224 37.0118 40.8651 37.0118 40.0244C37.0119 38.6278 37.7691 37.3193 39.8816 35.8323V37.1546C40.2591 37.1547 40.6195 37.2288 40.9499 37.3618C41.6583 37.6471 42.2279 38.2064 42.5253 38.9084C42.6707 39.2517 42.7512 39.6288 42.7512 40.0244C42.7512 41.4209 41.9938 42.7294 39.8816 44.2165ZM33.9189 40.0245C33.9189 41.8642 34.7567 43.5119 36.0706 44.6065C36.1101 44.6394 36.1501 44.6721 36.1906 44.7041C36.1946 44.7072 36.1985 44.7104 36.2024 44.7137C37.2166 45.5109 38.4945 45.987 39.8814 45.9871C39.9329 45.9871 39.984 45.9864 40.0351 45.9851C43.2418 45.9035 45.8269 43.2778 45.8436 40.0556C45.8436 40.0452 45.844 40.0348 45.844 40.0244C45.8439 36.7366 43.1691 34.062 39.8814 34.062C36.5938 34.062 33.9189 36.7367 33.9189 40.0245Z" fill="#5D8EEF" fill-opacity="0.6"/>
<path fill-rule="evenodd" clip-rule="evenodd" d="M39.8814 42.8941C39.1893 42.8941 38.5535 42.6478 38.0572 42.238C38.0447 42.2278 38.0329 42.2168 38.0206 42.2063C37.9979 42.1869 37.975 42.1677 37.953 42.1478C37.3751 41.6224 37.0117 40.8651 37.0117 40.0245C37.0118 38.6279 37.7691 37.3194 39.8815 35.8324V34.062H39.8814C36.5938 34.062 33.9189 36.7367 33.9189 40.0245C33.9189 41.8643 34.7567 43.5119 36.0706 44.6065C36.1101 44.6394 36.1501 44.6722 36.1906 44.7041C36.1946 44.7073 36.1985 44.7104 36.2024 44.7137C37.2166 45.5109 38.4945 45.9869 39.8814 45.9871H39.8815V42.8941H39.8814Z" fill="#5D8EEF"/>
</g>
<defs>
<clipPath id="clip0_2541_5375">
<rect width="42.069" height="42.069" fill="white" transform="translate(18.6211 19.3105)"/>
</clipPath>
</defs>
</svg>
