<svg width="184" height="64" viewBox="0 0 184 64" fill="none" xmlns="http://www.w3.org/2000/svg">
<path d="M80.5184 44.6344C80.669 46.1876 80.7255 47.7408 80.3019 49.2655C80.0854 50.0516 79.7842 50.7998 79.2382 51.4248C78.6546 52.0972 77.911 52.4571 77.0544 52.5992C75.9437 52.7791 74.9742 52.4003 74.0612 51.8226C72.8846 51.0744 71.9809 50.0516 71.162 48.9435C70.3149 47.7881 69.5995 46.5569 68.9406 45.2879C67.9711 43.4316 67.1333 41.5091 66.3897 39.5487C65.5896 37.4273 64.8931 35.268 64.2906 33.0897C63.9518 31.8585 63.6223 30.6274 63.2929 29.3962C63.1423 29.0836 63.114 28.7332 63.0482 28.4018C62.5587 26.1762 62.1351 23.9316 61.8339 21.6682C61.7021 20.7116 61.6174 19.7456 61.5421 18.7796C61.4386 17.5106 61.4762 16.251 61.4668 14.9819C61.4668 14.7641 61.5139 14.5463 61.5233 14.3284C61.5327 14.2432 61.5892 14.1769 61.6551 14.139C62.0316 13.8928 62.4175 13.656 62.8505 13.514C63.1893 13.4003 63.5188 13.4287 63.8482 13.5518C64.4413 13.7697 64.9496 14.1295 65.4202 14.5462C66.7851 15.749 67.9052 17.1791 68.9688 18.647C70.409 20.6264 71.6797 22.7194 72.8846 24.8503C73.7317 26.3466 74.5224 27.8714 75.266 29.4246C76.3014 31.5839 77.2427 33.7811 78.0616 36.0256C78.8335 38.147 79.5865 40.2779 80.1136 42.4846C80.2831 43.1949 80.396 43.9146 80.5184 44.6344Z" fill="#F31CB1"/>
<path d="M61.5618 14.2904C61.496 15.3795 61.496 16.4592 61.5336 17.5483C61.5524 18.2965 61.6089 19.0447 61.6842 19.7834C61.7595 20.5694 61.8537 21.3555 61.9572 22.1416C62.089 23.0792 62.2396 24.0073 62.409 24.9354C62.6726 26.3939 62.9738 27.8334 63.2938 29.2824C63.3032 29.3203 63.2938 29.3676 63.2938 29.415C62.7855 31.4038 62.2678 33.3832 61.656 35.3341C60.8747 37.8439 59.9711 40.3157 58.9074 42.7212C58.2015 44.3123 57.4202 45.8749 56.5166 47.3618C55.7541 48.6025 54.907 49.7768 53.8527 50.7902C53.1468 51.4721 52.3655 52.0687 51.4148 52.4097C50.2194 52.8358 49.0804 52.6938 47.9885 52.0687C47.6214 51.8604 47.2638 51.6236 46.972 51.3111C46.8213 51.1501 46.7743 50.9417 46.699 50.7428C46.3036 49.6442 46.0118 48.5267 45.9365 47.3618C45.8989 46.7746 45.9177 46.1875 45.9554 45.5908C46.0024 44.89 46.0589 44.1986 46.1624 43.5073C46.3978 41.831 46.7931 40.1831 47.2637 38.5541C47.8097 36.6884 48.4592 34.8511 49.1181 33.0233C49.344 32.3888 49.5699 31.7448 49.8052 31.1102C49.8429 31.0155 49.8523 30.9114 49.9464 30.8451C50.1064 30.7504 50.1817 30.5894 50.2759 30.4473C51.0101 29.5286 51.4995 28.4585 52.0643 27.4356C52.8926 25.9298 53.7492 24.4335 54.6528 22.975C55.6977 21.2892 56.7895 19.6224 57.985 18.0313C58.6062 17.2074 59.2557 16.4024 59.9711 15.6542C60.4135 15.1996 60.8653 14.764 61.3548 14.3567C61.4207 14.3094 61.4677 14.2241 61.5618 14.2904Z" fill="#F15511"/>
<path d="M36.7772 29.1023C36.6454 29.6232 36.5042 30.1536 36.3724 30.6745C35.9489 32.3886 35.4688 34.0934 34.9323 35.7791C34.3204 37.7206 33.6333 39.6337 32.852 41.4994C32.2308 42.9863 31.5625 44.4542 30.7906 45.8653C30.0094 47.2954 29.1622 48.6876 28.0797 49.9282C27.3926 50.7143 26.6396 51.453 25.7359 51.9834C24.5311 52.6937 23.2509 52.9115 21.9331 52.3054C21.2366 51.9834 20.7095 51.4435 20.3235 50.7711C19.7682 49.8241 19.5517 48.7823 19.4576 47.7026C19.4105 47.087 19.3728 46.4715 19.3917 45.8464C19.4199 44.8141 19.5329 43.7913 19.7776 42.7874C20.1259 41.3763 20.5683 39.9841 21.0295 38.6108C21.8296 36.2432 22.7238 33.9229 23.731 31.6405C24.2016 30.5703 24.6911 29.5001 25.2182 28.4489C26.4513 25.9865 27.7691 23.5904 29.2657 21.2796C30.1694 19.878 31.1012 18.4953 32.1367 17.1883C32.7956 16.3644 33.5015 15.5783 34.264 14.8491C34.4805 14.6407 34.6969 14.4229 34.9511 14.2429C35.0076 14.2051 35.0735 14.1104 35.1488 14.2335C35.177 14.3282 35.177 14.4229 35.1676 14.5176C35.0829 15.5404 35.1017 16.5727 35.1394 17.5955C35.2241 19.8401 35.5159 22.0657 35.9018 24.2818C36.1654 25.7592 36.4572 27.2366 36.7678 28.7046C36.796 28.8466 36.8525 28.9698 36.7772 29.1023Z" fill="#F31CB1"/>
<path d="M36.7784 29.1023C36.5619 28.0321 36.336 26.9619 36.129 25.8917C35.9219 24.85 35.7336 23.7987 35.583 22.7475C35.4606 21.8478 35.3289 20.9575 35.2347 20.0578C35.1688 19.3665 35.1218 18.6657 35.0841 17.9743C35.0276 16.9515 35.0559 15.9192 35.0559 14.8964C35.0559 14.6691 35.0841 14.4323 35.0935 14.205C35.0841 14.1292 35.1406 14.1008 35.1877 14.0724C35.7242 13.722 36.289 13.4189 36.9667 13.4568C37.2208 13.4663 37.4562 13.5326 37.6727 13.6368C38.2845 13.9304 38.821 14.3092 39.3199 14.7732C40.7412 16.1086 41.899 17.6712 43.0286 19.2528C44.2522 20.9765 45.3535 22.7759 46.4266 24.5943C47.4149 26.2706 48.3562 27.9658 49.3258 29.6516C49.514 29.9736 49.6834 30.3145 49.8811 30.6365C49.9094 30.7123 49.9282 30.7786 49.9564 30.8543C49.6458 31.7541 49.3258 32.6443 49.0151 33.544C48.7516 34.2827 48.4974 35.0214 48.2433 35.7601C47.6503 37.4459 47.1326 39.1601 46.7278 40.9121C46.5113 41.8403 46.3325 42.7779 46.2101 43.7249C46.1254 44.3689 46.0783 45.0224 46.0313 45.6664C45.9936 46.2157 45.9842 46.7745 46.0124 47.3237C46.0501 48.1098 46.2195 48.8864 46.436 49.644C46.596 50.2123 46.7937 50.7616 46.9914 51.3109C46.4643 50.9415 46.003 50.5059 45.57 50.0229C44.9582 49.3505 44.4311 48.6117 43.9416 47.8446C43.085 46.4998 42.3414 45.0982 41.6731 43.6586C40.9766 42.1528 40.3365 40.628 39.7623 39.0748C39.1975 37.5406 38.6798 35.9779 38.2186 34.4153C37.7103 32.7106 37.2679 30.9869 36.8255 29.2633C36.7973 29.197 36.7878 29.1496 36.7784 29.1023Z" fill="#FE902E"/>
<path d="M61.5614 14.2903C61.279 14.4324 61.0625 14.6597 60.846 14.8775C60.5448 15.1711 60.2342 15.4552 59.9518 15.7583C59.3776 16.3644 58.8411 17.0179 58.3234 17.6808C57.3727 18.9025 56.5067 20.1811 55.6689 21.4785C54.803 22.8234 53.9652 24.1871 53.1745 25.5699C52.5345 26.6969 51.9038 27.8333 51.3014 28.9793C51.0378 29.4907 50.7084 29.9547 50.3507 30.3999C50.3319 30.4188 50.3036 30.4283 50.2754 30.4377C50.3883 30.0589 50.5672 29.699 50.7272 29.3392C51.4426 27.6818 52.2144 26.0623 53.0428 24.4618C53.6923 23.2022 54.3888 21.9521 55.1136 20.7304C55.8196 19.5276 56.5538 18.3438 57.335 17.1978C58.1916 15.9382 59.0952 14.7071 60.1118 13.5706C60.7801 12.8224 61.5143 12.1784 62.3615 11.6386C62.9168 11.2882 63.491 11.326 64.0746 11.5818C64.6676 11.8375 65.1383 12.2636 65.5995 12.7088C66.8702 13.921 67.9433 15.2848 68.9316 16.7243C69.9388 18.1828 70.8801 19.6886 71.7649 21.2323C72.2544 22.0847 72.725 22.9465 73.1862 23.8083C73.6663 24.708 74.1369 25.6172 74.5793 26.5359C75.1818 27.7954 75.7559 29.0645 76.3019 30.343C77.2808 32.6349 78.1468 34.9647 78.9092 37.3418C79.4458 39.0276 79.9164 40.7228 80.227 42.4654C80.3588 43.1852 80.4718 43.905 80.5094 44.6342C80.3965 44.3122 80.3588 43.9713 80.2929 43.6303C80.0953 42.617 79.8505 41.6225 79.5587 40.6376C79.2669 39.6811 78.9563 38.7245 78.6269 37.7775C78.0903 36.2148 77.5067 34.6711 76.8667 33.1558C76.3772 32.0004 75.8689 30.8545 75.3324 29.718C74.9653 28.9509 74.6076 28.1932 74.2122 27.4356C73.591 26.2517 72.9509 25.0868 72.2826 23.9314C71.4166 22.4445 70.5036 20.9861 69.5341 19.556C68.9222 18.6563 68.2727 17.785 67.5856 16.9421C66.9926 16.2129 66.3713 15.5026 65.6842 14.8586C65.1477 14.3566 64.5829 13.8926 63.8769 13.6179C63.5192 13.4759 63.171 13.438 62.8039 13.5706C62.3615 13.7505 61.9473 13.9873 61.5614 14.2903Z" fill="#9D242E"/>
<path d="M49.8796 30.6178C49.6631 30.4663 49.5972 30.2106 49.4748 29.9928C48.4865 28.2786 47.4982 26.5644 46.5192 24.8502C45.6344 23.3065 44.7025 21.8007 43.7236 20.3233C42.8482 19.0068 41.9163 17.7188 40.8998 16.5066C40.1279 15.5879 39.3466 14.6882 38.33 14.0348C38.0194 13.8359 37.6994 13.637 37.3417 13.5423C36.7581 13.3908 36.2122 13.5423 35.6945 13.8169C35.4968 13.9306 35.2897 14.0348 35.1109 14.1863C34.4802 14.6882 33.906 15.2565 33.3601 15.8437C32.4658 16.8191 31.6469 17.8609 30.8845 18.95C29.7926 20.5032 28.776 22.1132 27.8065 23.7516C27.3641 24.4998 26.9593 25.2574 26.5452 26.0246C26.0934 26.8675 25.6415 27.7009 25.2274 28.5627C24.4744 30.0969 23.759 31.6501 23.1095 33.2317C22.46 34.8038 21.8576 36.3949 21.3022 37.9954C20.7751 39.5202 20.295 41.0544 19.8621 42.6171C19.8432 42.6739 19.8526 42.7497 19.7773 42.7876C19.8244 42.2856 19.9468 41.7931 20.0503 41.3007C20.4833 39.3403 21.0293 37.4083 21.6882 35.5141C22.1494 34.1882 22.6483 32.8908 23.1754 31.5933C23.7119 30.2958 24.2861 29.0078 24.8791 27.7293C25.3497 26.7065 25.8392 25.6836 26.3569 24.6797C27.6653 22.1321 29.0678 19.6414 30.6868 17.2832C31.5528 16.0141 32.4564 14.7829 33.4824 13.637C34.0754 12.9741 34.6873 12.3395 35.4403 11.866C35.8639 11.6008 36.2969 11.3072 36.8334 11.3451C37.3323 11.3735 37.7559 11.6008 38.1606 11.8755C39.1678 12.5763 39.9867 13.476 40.7586 14.4136C41.6622 15.5311 42.4999 16.696 43.2812 17.8988C44.0813 19.13 44.8437 20.3896 45.5685 21.6681C46.5663 23.4296 47.4887 25.2196 48.3641 27.0474C48.9007 28.1649 49.4843 29.2635 49.8514 30.4568C49.8514 30.5231 49.8608 30.5705 49.8796 30.6178Z" fill="#9D242E"/>
<path d="M91.5558 28.3095C91.546 28.2596 91.5163 28.1798 91.5854 28.1698C91.6348 28.1598 91.6743 28.2397 91.6644 28.3095C91.6249 28.3095 91.5854 28.3095 91.5558 28.3095Z" fill="#B7B5B6"/>
<path d="M91.9082 28.7902C91.6786 32.0239 91.4491 35.2576 91.2195 38.4912C91.1758 39.1622 91.0883 39.8331 91.0446 40.5041C91.0337 40.669 90.9899 40.713 90.826 40.713C89.9842 40.702 89.1534 40.702 88.3116 40.713C88.1477 40.713 88.1039 40.669 88.1149 40.5041C88.2242 38.3923 88.3554 36.2915 88.5303 34.1907C88.7161 31.9359 88.902 29.6701 89.0878 27.4153C89.1862 26.2384 89.2736 25.0615 89.3502 23.8957C89.3611 23.7087 89.4267 23.6867 89.5907 23.6757C90.8478 23.6207 92.1159 23.5987 93.384 23.6097C93.5589 23.6097 93.6354 23.6647 93.701 23.8297C94.3788 25.6115 95.0238 27.3933 95.6032 29.2081C96.1279 30.847 96.6745 32.4858 97.2867 34.0917C97.56 34.7956 97.8551 35.4885 98.1722 36.2585C98.6532 34.8726 99.1014 33.5637 99.5496 32.2439C100.359 29.8681 101.167 27.4813 101.987 25.1055C102.129 24.6876 102.293 24.2696 102.436 23.8407C102.49 23.6867 102.556 23.6317 102.72 23.6317C103.988 23.6097 105.245 23.6097 106.513 23.6317C106.688 23.6317 106.732 23.6977 106.743 23.8627C106.939 26.3704 107.125 28.8782 107.344 31.3749C107.574 33.9707 107.759 36.5664 107.912 39.1622C107.934 39.6131 107.956 40.0641 107.989 40.5041C108 40.669 107.956 40.713 107.792 40.713C106.83 40.702 105.868 40.702 104.906 40.713C104.753 40.713 104.72 40.658 104.709 40.5151C104.556 38.5242 104.392 36.5334 104.25 34.5426C104.108 32.6068 103.966 30.671 103.769 28.7352C103.769 28.7022 103.747 28.6802 103.715 28.6032C103.518 29.0652 103.332 29.4941 103.168 29.9121C102.37 31.9909 101.659 34.0917 100.96 36.2035C100.479 37.6333 99.965 39.0522 99.4621 40.4821C99.3965 40.658 99.3091 40.713 99.1232 40.713C98.2596 40.735 97.4069 40.713 96.5433 40.702C96.3684 40.702 96.2919 40.647 96.2372 40.4821C95.5704 38.5242 94.8926 36.5664 94.2367 34.6086C93.5808 32.6398 92.8593 30.682 92.0285 28.7792C91.9847 28.7352 91.941 28.7242 91.9082 28.7902Z" fill="black"/>
<path d="M115.785 36.8083C115.96 36.5224 116.026 36.2474 116.113 35.9944C116.835 33.9706 117.458 31.9138 118.114 29.868C118.212 29.571 118.31 29.2741 118.409 28.9771C118.442 28.8891 118.452 28.7901 118.595 28.7791C119.557 28.7351 120.508 28.7021 121.524 28.7131C121.295 29.395 121.076 30.055 120.857 30.7039C119.885 33.5196 118.769 36.2694 117.775 39.0741C117.436 40.009 117.108 40.9439 116.736 41.8678C116.528 42.3738 116.31 42.8797 115.993 43.3307C115.217 44.4086 114.211 45.0905 112.844 45.1565C112.298 45.1785 111.751 45.1675 111.205 45.0905C111.03 45.0685 110.953 45.0135 110.931 44.8376C110.833 44.1886 110.724 43.5287 110.592 42.8797C110.549 42.6818 110.647 42.6818 110.789 42.6818C111.281 42.6708 111.773 42.6708 112.265 42.6378C113.577 42.5608 114.44 41.2519 113.981 40.02C112.987 37.3583 111.981 34.7075 110.975 32.0458C110.625 31.1109 110.297 30.176 109.937 29.2521C109.838 28.9991 109.904 28.9331 110.144 28.9001C111.008 28.7681 111.871 28.6581 112.735 28.6031C112.954 28.5921 113.041 28.6361 113.118 28.8451C113.675 30.5499 114.244 32.2438 114.812 33.9376C115.096 34.7735 115.381 35.6094 115.676 36.4454C115.676 36.5664 115.72 36.6543 115.785 36.8083Z" fill="black"/>
<path d="M126.421 30.2641C126.847 29.8682 127.328 29.6152 127.788 29.3292C128.509 28.8893 129.263 28.5373 130.116 28.4603C131.351 28.3613 132.456 28.6253 133.275 29.6262C133.691 30.1321 133.92 30.7261 133.931 31.386C133.975 34.3997 133.975 37.4025 133.953 40.4162C133.953 40.6471 133.877 40.6911 133.669 40.6911C132.882 40.6911 132.106 40.6911 131.319 40.7131C131.056 40.7241 131.013 40.6361 130.991 40.3942C130.827 38.3264 130.969 36.2696 130.936 34.2018C130.925 33.6298 130.87 33.0579 130.881 32.4859C130.903 31.87 130.411 31.364 129.908 31.221C129.526 31.1111 129.143 31.0781 128.75 31.188C128.137 31.353 127.613 31.694 127.11 32.057C126.727 32.3319 126.552 32.7609 126.563 33.2668C126.574 35.6206 126.563 37.9854 126.574 40.3392C126.574 40.6141 126.52 40.7021 126.235 40.6911C125.415 40.6691 124.606 40.6691 123.787 40.6801C123.568 40.6801 123.48 40.6471 123.48 40.3942C123.491 36.5885 123.491 32.7829 123.491 28.9773C123.491 28.7573 123.546 28.6913 123.765 28.7023C124.442 28.7243 125.131 28.7243 125.809 28.7243C125.995 28.7243 126.082 28.7793 126.115 28.9773C126.192 29.3952 126.312 29.8022 126.421 30.2641Z" fill="black"/>
<path d="M137.636 34.6966C137.636 33.6407 137.625 32.5848 137.636 31.5289C137.636 31.2759 137.559 31.2099 137.319 31.199C136.914 31.188 136.521 31.111 136.116 31.078C135.952 31.067 135.909 31.012 135.92 30.858C135.941 30.242 135.963 29.6261 135.974 29.0102C135.974 28.8452 136.029 28.7792 136.204 28.7682C136.586 28.7462 136.958 28.6692 137.341 28.6692C137.625 28.6692 137.658 28.5482 137.658 28.3062C137.658 27.2613 137.68 26.2164 137.691 25.1715C137.691 25.0175 137.701 24.8966 137.909 24.8746C138.74 24.7866 139.571 24.6986 140.402 24.5776C140.631 24.5446 140.686 24.5886 140.686 24.8196C140.686 25.9854 140.708 27.1513 140.686 28.3172C140.686 28.6032 140.762 28.6692 141.036 28.6692C141.659 28.6692 142.282 28.7132 142.916 28.7132C143.113 28.7132 143.189 28.7792 143.222 28.9662C143.32 29.5931 143.419 30.231 143.539 30.858C143.572 31.056 143.517 31.111 143.32 31.122C142.533 31.144 141.757 31.177 140.97 31.199C140.806 31.199 140.708 31.2099 140.708 31.4299C140.719 33.2338 140.587 35.0376 140.74 36.8414C140.762 37.1164 140.74 37.4134 140.883 37.6553C141.101 38.0293 141.462 38.1613 141.866 38.2053C142.249 38.2493 142.643 38.3043 143.036 38.3263C143.222 38.3373 143.277 38.4033 143.309 38.5792C143.397 39.2502 143.506 39.9101 143.605 40.57C143.616 40.68 143.637 40.757 143.473 40.779C142.205 40.911 140.937 41.054 139.691 40.614C138.499 40.1961 137.8 39.2172 137.712 37.8533C137.636 36.8084 137.636 35.7525 137.636 34.6966Z" fill="black"/>
<path d="M148.864 30.7924C149.411 30.1985 149.968 29.7145 150.569 29.2966C151.171 28.8896 151.805 28.5816 152.526 28.4606C152.723 28.4276 152.8 28.4716 152.843 28.6696C153.018 29.4725 153.171 30.2755 153.215 31.0894C153.226 31.3094 153.16 31.3864 152.953 31.4523C152.155 31.6833 151.324 31.8373 150.602 32.2883C150.329 32.4532 150.067 32.6512 149.826 32.8712C149.269 33.3882 148.962 33.9931 148.973 34.796C149.006 36.6438 148.973 38.5027 148.984 40.3505C148.984 40.6475 148.908 40.7245 148.613 40.7135C147.804 40.6915 147.006 40.6915 146.197 40.6915C145.978 40.6915 145.891 40.6585 145.891 40.4055C145.902 36.5999 145.902 32.7942 145.902 28.9886C145.902 28.7686 145.945 28.7026 146.175 28.7026C146.853 28.7246 147.541 28.7246 148.219 28.7026C148.492 28.6916 148.547 28.8016 148.58 29.0436C148.656 29.6045 148.766 30.1655 148.864 30.7924Z" fill="black"/>
<path d="M164.606 39.2171C164.54 39.0521 164.584 38.8871 164.573 38.7222C164.573 38.5682 164.573 38.4142 164.573 38.2602C164.573 38.1062 164.573 37.9412 164.573 37.7872C164.573 37.6223 164.573 37.4683 164.573 37.3033C164.573 37.0723 164.573 36.8523 164.573 36.6214C164.573 35.8294 164.573 35.0375 164.573 34.2456C164.573 33.9596 164.573 33.6626 164.573 33.3767C164.573 33.2117 164.573 33.0577 164.573 32.8927C164.573 32.7607 164.573 32.6287 164.573 32.4858C164.584 32.2988 164.54 32.1228 164.606 31.9358C164.606 31.8808 164.606 31.8368 164.606 31.7818C164.562 31.6278 164.551 31.4629 164.54 31.2979C164.518 31.0559 164.486 30.8139 164.289 30.6379C163.884 29.626 163.141 29.0101 162.113 28.7351C159.708 28.0862 157.402 28.5701 155.106 29.3071C155.008 29.3401 154.964 29.3951 154.986 29.505C155.084 30.176 155.182 30.8579 155.27 31.5398C155.292 31.7598 155.379 31.7268 155.532 31.6718C156.046 31.5068 156.56 31.3529 157.074 31.2099C157.915 30.9569 158.768 30.7919 159.643 30.8579C160.452 30.9129 161.173 31.1109 161.414 32.0348C161.457 32.2108 161.479 32.3868 161.545 32.5517C161.654 32.8157 161.523 32.8707 161.293 32.9147C160.506 33.0467 159.708 33.2007 158.921 33.3327C157.872 33.5087 156.855 33.8276 155.926 34.3446C154.833 34.9605 154.22 35.9394 154.1 37.1933C153.936 38.8431 154.887 40.537 156.68 40.8559C157.773 41.0429 158.812 40.8889 159.818 40.427C160.473 40.13 161.097 39.7561 161.698 39.2941C161.785 39.6791 161.873 40.031 161.927 40.383C161.96 40.614 162.059 40.68 162.299 40.68C162.977 40.669 163.666 40.68 164.343 40.691C164.387 40.691 164.431 40.68 164.475 40.68C164.562 40.548 164.573 40.394 164.584 40.24C164.595 39.965 164.54 39.6901 164.617 39.4151C164.606 39.3601 164.606 39.2941 164.606 39.2171ZM161.151 37.7213C160.517 38.1062 159.905 38.5132 159.173 38.6562C158.91 38.7112 158.637 38.7112 158.375 38.6672C157.839 38.5682 157.402 38.3262 157.238 37.7652C157.063 37.1713 157.15 36.6324 157.566 36.1704C158.101 35.5655 158.823 35.2575 159.588 35.0595C160.124 34.9275 160.681 34.8395 161.228 34.7295C161.446 34.6855 161.501 34.7515 161.49 34.9605C161.479 35.3565 161.49 35.7414 161.49 36.1374C161.501 36.1374 161.501 36.1374 161.512 36.1374C161.512 36.4564 161.49 36.7643 161.523 37.0833C161.534 37.3913 161.403 37.5673 161.151 37.7213Z" fill="black"/>
</svg>
