<svg width="184" height="64" viewBox="0 0 184 64" fill="none" xmlns="http://www.w3.org/2000/svg">
<path d="M23.412 18.4357C21.2687 18.4139 19.4753 19.234 17.9554 20.6993C14.2921 24.2641 10.6398 27.8399 6.97658 31.4047C5.63157 32.7169 3.63046 32.3014 3.10558 30.5955C2.85407 29.7535 3.0509 28.999 3.707 28.3648C5.32539 26.812 6.92191 25.2373 8.52936 23.6736C10.6617 21.596 12.7831 19.5074 14.9264 17.4516C17.0587 15.3958 19.5738 14.2367 22.559 14.0289C28.0265 13.6462 33.4613 17.0907 34.9156 22.7113C35.7248 25.8497 35.3093 28.8678 33.5269 31.6234C33.1769 32.1702 33.1769 32.5201 33.68 32.9575C34.2705 33.4605 34.8063 34.0291 35.3421 34.5868C36.1731 35.4507 36.2169 36.6754 35.4624 37.5283C34.6641 38.4359 33.341 38.6437 32.4224 37.8673C30.9025 36.5879 29.4809 35.1773 28.1578 33.7011C27.4032 32.8481 27.5673 31.7656 28.5186 30.7923C29.0872 30.2018 29.5903 29.5676 29.973 28.835C32.3349 24.3516 29.2185 19.2887 24.8444 18.556C24.3633 18.4685 23.8931 18.4467 23.412 18.4357Z" fill="#0E8E6D"/>
<path d="M104.976 25.5106C105.14 25.2262 105.293 24.931 105.468 24.6576C107.075 22.241 111.46 22.4159 112.619 25.1278C112.674 25.27 112.685 25.5106 112.893 25.4996C113.079 25.4887 113.1 25.259 113.188 25.1278C114.271 23.4001 115.9 22.8315 117.824 22.9955C119.541 23.1486 120.821 23.9906 121.455 25.6636C121.663 26.2104 121.783 26.79 121.783 27.3804C121.783 30.4641 121.772 33.5369 121.794 36.6206C121.794 37.1126 121.641 37.211 121.192 37.1892C120.339 37.1564 119.476 37.1564 118.612 37.1892C118.174 37.211 118.043 37.0798 118.043 36.6424C118.065 34.1274 118.054 31.6123 118.054 29.0972C118.054 28.8676 118.054 28.638 118.032 28.4083C117.912 26.9212 117.267 26.2432 115.922 26.1885C114.456 26.1229 113.494 26.8884 113.297 28.3099C113.166 29.2066 113.254 30.1142 113.243 31.0109C113.232 32.8917 113.232 34.7835 113.243 36.6643C113.243 37.0689 113.155 37.211 112.729 37.1892C111.93 37.1564 111.132 37.1454 110.345 37.1892C109.831 37.222 109.678 37.0908 109.689 36.5549C109.722 34.0399 109.7 31.5248 109.7 29.0098C109.7 28.8239 109.7 28.627 109.7 28.4411C109.634 27.1071 108.978 26.3307 107.786 26.1995C106.463 26.0464 105.391 26.7462 105.052 27.9709C104.943 28.3537 104.921 28.7583 104.921 29.1519C104.921 31.6451 104.91 34.1383 104.932 36.6315C104.932 37.0689 104.823 37.2001 104.385 37.1892C103.489 37.1564 102.581 37.1673 101.684 37.1892C101.356 37.2001 101.203 37.1345 101.203 36.7518C101.214 32.3887 101.214 28.0365 101.203 23.6735C101.203 23.3782 101.236 23.2033 101.597 23.2142C102.537 23.2361 103.489 23.2361 104.429 23.2142C104.735 23.2142 104.834 23.3017 104.823 23.6079C104.801 24.2312 104.812 24.8435 104.812 25.4668C104.866 25.4777 104.921 25.4887 104.976 25.5106Z" fill="#0E8E6D"/>
<path d="M125.239 27.9929C125.239 25.1279 125.25 22.252 125.229 19.387C125.229 18.9605 125.327 18.8184 125.775 18.8184C129.46 18.8402 133.156 18.8402 136.842 18.8184C137.257 18.8184 137.443 18.884 137.41 19.3542C137.366 20.1087 137.377 20.8632 137.41 21.6177C137.432 22.0551 137.268 22.1317 136.874 22.1317C134.49 22.1207 132.096 22.1426 129.712 22.1098C129.176 22.0989 129.045 22.2629 129.067 22.7768C129.11 23.7391 129.11 24.7014 129.067 25.6637C129.045 26.2104 129.154 26.4073 129.767 26.3963C131.965 26.3526 134.162 26.3963 136.371 26.3635C136.842 26.3526 136.995 26.4729 136.962 26.954C136.918 27.5992 136.929 28.2553 136.962 28.9005C136.984 29.316 136.842 29.4254 136.437 29.4254C134.195 29.4035 131.954 29.4254 129.712 29.4035C129.231 29.4035 129.056 29.491 129.078 30.0158C129.121 31.0984 129.11 32.1919 129.078 33.2854C129.067 33.7666 129.176 33.9306 129.69 33.9197C132.074 33.8869 134.469 33.9197 136.852 33.8978C137.279 33.8978 137.443 33.9853 137.421 34.4445C137.377 35.1772 137.388 35.9098 137.421 36.6425C137.443 37.0689 137.345 37.2111 136.885 37.2111C133.178 37.1892 129.471 37.1892 125.753 37.2111C125.316 37.2111 125.239 37.069 125.239 36.6753C125.239 33.7666 125.239 30.8797 125.239 27.9929Z" fill="#0E8E6D"/>
<path d="M63.1831 25.4561C63.3362 25.467 63.369 25.3576 63.4128 25.2702C64.386 23.2909 66.6933 22.6239 69.0115 23.116C70.9142 23.5315 72.2046 25.0733 72.3467 27.2494C72.5326 29.9504 72.3795 32.6513 72.4123 35.3523C72.4233 35.9318 72.6091 36.7082 72.3139 37.0472C71.9749 37.4409 71.1767 37.1456 70.5752 37.1675C70.1597 37.1894 69.7332 37.1456 69.3177 37.1784C68.8475 37.2222 68.6835 37.0909 68.6835 36.577C68.7163 34.226 68.6944 31.8859 68.6944 29.5348C68.6944 29.3708 68.6944 29.1958 68.6944 29.0318C68.6507 27.1291 67.7868 26.1778 66.1137 26.1668C64.3532 26.1559 63.205 27.2385 63.1722 29.0537C63.1285 31.4157 63.1613 33.7886 63.1613 36.1615C63.1613 37.1675 63.1613 37.1675 62.1443 37.1675C61.4117 37.1675 60.679 37.1456 59.9464 37.1784C59.5746 37.1894 59.4434 37.1019 59.4434 36.6973C59.4543 30.5846 59.4543 24.461 59.4434 18.3483C59.4434 17.9546 59.5746 17.8453 59.9464 17.8562C60.8212 17.8781 61.7069 17.889 62.5817 17.8562C63.0082 17.8453 63.1175 17.9874 63.1066 18.392C63.0847 20.5462 63.0957 22.7114 63.1066 24.8656C63.1066 25.0733 63.0301 25.292 63.1831 25.4561Z" fill="#0E8E6D"/>
<path d="M11.712 38.2608C11.6354 37.725 11.865 37.2876 12.2368 36.9158C13.9755 35.2099 15.7032 33.504 17.4529 31.831C18.3277 30.989 19.5524 31.0327 20.4381 31.8856C22.2861 33.6571 24.1123 35.4395 25.9384 37.2219C27.032 38.2826 28.1255 39.3543 29.219 40.4368C30.2141 41.4319 30.2359 42.5801 29.2408 43.5752C27.5896 45.2155 25.9275 46.8338 24.2435 48.4413C23.325 49.3161 21.8269 49.2833 21.0177 48.4304C20.121 47.4899 20.1647 46.2215 21.127 45.2483C22.0893 44.286 23.0625 43.3237 24.0467 42.3942C24.4075 42.0552 24.4732 41.8147 24.0686 41.4319C22.5048 39.9448 20.963 38.4357 19.4212 36.9267C19.0822 36.5877 18.8416 36.6424 18.5245 36.9486C17.5841 37.8999 16.6437 38.8513 15.6595 39.7698C14.5113 40.8305 13.221 40.8414 12.2696 39.8573C11.865 39.4199 11.6463 38.895 11.712 38.2608Z" fill="#0E8E6D"/>
<path d="M166.518 23.2252C167.841 23.2252 169.098 23.2362 170.356 23.2252C170.749 23.2252 170.706 23.5205 170.771 23.7392C171.679 26.9541 172.576 30.1799 173.483 33.3948C173.516 33.5151 173.516 33.6463 173.68 33.7447C173.921 33.6135 173.899 33.3292 173.953 33.1214C174.817 30.0487 175.692 26.965 176.512 23.8813C176.654 23.3565 176.873 23.1924 177.409 23.2143C178.47 23.258 179.541 23.2252 180.668 23.2252C180.132 24.7999 179.618 26.3198 179.104 27.8398C177.999 31.0657 176.895 34.2806 175.79 37.5064C175.637 37.9438 175.462 38.3593 175.277 38.7858C174.38 40.8963 172.772 42.0335 170.498 42.1975C169.831 42.2413 169.153 42.2085 168.486 42.2085C168.136 42.2085 167.939 42.0991 167.961 41.6945C167.994 41.0056 167.983 40.3167 167.961 39.6169C167.95 39.2888 168.059 39.1685 168.387 39.2013C168.869 39.2341 169.339 39.2013 169.82 39.1248C170.946 38.9389 171.591 37.5829 171.231 36.5769C169.678 32.3669 168.223 28.1132 166.736 23.8704C166.671 23.6736 166.605 23.4767 166.518 23.2252Z" fill="#0E8E6D"/>
<path d="M163.961 27.1402C163.775 27.1402 163.578 27.1293 163.393 27.1402C162.791 27.173 162.332 27.1293 161.905 26.4841C161.217 25.4234 158.712 25.4234 157.859 26.3748C157.356 26.9324 157.455 27.6214 158.111 28.015C158.712 28.3868 159.401 28.4743 160.079 28.6274C161.052 28.8461 162.048 29.021 163.01 29.2835C164.869 29.7974 165.897 30.8472 166.028 32.3234C166.181 34.0949 165.558 35.5493 163.994 36.3913C161.249 37.8675 158.417 37.8456 155.629 36.4678C154.546 35.932 153.945 34.9588 153.682 33.7559C153.573 33.242 153.748 33.1873 154.163 33.2092C154.83 33.231 155.508 33.2092 156.175 33.2201C156.755 33.2201 157.335 33.1982 157.608 33.8981C157.717 34.1714 158.023 34.3027 158.297 34.412C159.336 34.8166 160.375 34.8276 161.413 34.423C161.96 34.2152 162.354 33.8215 162.332 33.2092C162.31 32.6296 161.873 32.3344 161.381 32.1703C160.331 31.8095 159.226 31.6564 158.144 31.4049C157.466 31.2518 156.81 31.055 156.175 30.7816C153.168 29.4803 153.42 25.6312 155.574 24.144C157.269 22.974 159.161 22.8427 161.107 23.0286C162.091 23.1271 163.032 23.3895 163.885 23.9362C164.836 24.5486 165.394 25.4234 165.634 26.506C165.733 26.9324 165.7 27.2277 165.12 27.1511C164.77 27.1074 164.366 27.1402 163.961 27.1402Z" fill="#0E8E6D"/>
<path d="M94.0314 25.4121C94.5563 24.0561 95.5514 23.2797 96.9511 23.0282C97.0495 23.0064 97.1588 22.9954 97.2573 22.9845C98.9959 22.8423 99.1271 22.9626 99.1271 24.6685C99.1271 25.2699 99.1271 25.8713 99.1271 26.5056C98.4273 26.3634 97.7821 26.2869 97.137 26.3197C95.1796 26.3962 93.9986 27.5991 93.9767 29.5674C93.9549 31.8747 93.9439 34.171 93.9877 36.4783C93.9986 37.1126 93.8127 37.2438 93.2222 37.211C92.4349 37.1563 91.6257 37.1672 90.8384 37.211C90.3682 37.2329 90.237 37.1126 90.237 36.6314C90.2588 33.5368 90.2479 30.4313 90.2479 27.3366C90.2479 26.1447 90.2698 24.9528 90.237 23.7609C90.226 23.3453 90.3572 23.2251 90.7618 23.236C91.6585 23.2688 92.5661 23.2579 93.4628 23.236C93.758 23.236 93.8674 23.3125 93.8565 23.6187C93.8346 24.1983 93.8455 24.7778 93.8455 25.3465C93.9221 25.3574 93.9767 25.3902 94.0314 25.4121Z" fill="#0E8E6D"/>
<path d="M51.1535 18.8293C48.7041 18.8184 46.2437 18.8402 43.7942 18.8184C43.324 18.8184 43.1928 18.9277 43.2037 19.4089C43.2256 22.2848 43.2147 25.1498 43.2147 28.0257C43.2147 30.9016 43.2256 33.7666 43.2037 36.6425C43.2037 37.0689 43.2912 37.233 43.7505 37.2111C44.6909 37.1783 45.6423 37.1783 46.5827 37.2111C46.9763 37.222 47.0748 37.1127 47.0748 36.719C47.0529 35.1444 47.0748 33.5807 47.0529 32.006C47.0529 31.6233 47.1404 31.503 47.534 31.5139C48.5838 31.5468 49.6336 31.5249 50.6833 31.5249C54.7293 31.5249 57.2662 28.977 57.2553 24.931C57.2334 21.4209 54.6527 18.8402 51.1535 18.8293ZM50.8692 28.2662C49.6992 28.474 48.5291 28.3428 47.3591 28.3865C47.031 28.3975 47.0529 28.2006 47.0529 27.9819C47.0529 27.0634 47.0529 26.1339 47.0529 25.2154C47.0529 24.2968 47.0529 23.3673 47.0529 22.4488C47.0529 22.2301 46.9982 21.9677 47.37 21.9895C48.54 22.0442 49.721 21.8802 50.8801 22.0989C52.4329 22.3832 53.3296 23.5204 53.3296 25.1935C53.3405 26.8337 52.422 27.9819 50.8692 28.2662Z" fill="#0E8E6D"/>
<path d="M87.1842 27.5446C87.1842 25.5873 86.2 24.122 84.3411 23.4659C82.1869 22.7004 80.0108 22.7551 77.9113 23.6408C76.5444 24.2094 75.6149 25.2155 75.2978 26.7136C75.2431 26.9432 75.1666 27.1619 75.5603 27.1619C76.5007 27.1619 77.4411 27.1838 78.3815 27.2057C78.5127 27.2057 78.6439 27.2166 78.7096 27.0854C79.1907 26.145 80.0655 25.9919 80.984 25.9153C82.7555 25.7732 83.6303 26.6261 83.5319 28.3757C83.521 28.6819 83.4225 28.7584 83.1382 28.7694C82.2853 28.7912 81.4214 28.8568 80.5685 28.9115C79.4422 28.9771 78.3159 29.0974 77.2552 29.5348C75.4728 30.2675 74.6745 31.5141 74.7292 33.5152C74.7729 35.1882 75.8227 36.6754 77.4958 37.1675C79.814 37.8454 81.8807 37.4846 83.5975 35.4616C83.5975 35.8662 83.6303 36.2817 83.5866 36.6863C83.5538 37.1128 83.7178 37.2112 84.1224 37.2003C84.9425 37.1675 85.7626 37.1675 86.5718 37.2003C87.042 37.2222 87.2061 37.1128 87.1951 36.5989C87.1733 33.5698 87.1842 30.5627 87.1842 27.5446ZM79.5843 34.4884C78.797 34.2369 78.3596 33.6683 78.3706 32.9356C78.3815 32.2248 78.7861 31.7218 79.5843 31.4484C80.3061 31.2079 81.0715 31.2735 81.8151 31.1204C82.2088 31.1204 82.6134 31.1751 83.007 31.1095C83.4991 31.0329 83.521 31.2407 83.5538 31.6453C83.7069 34.1385 81.1918 35.0133 79.5843 34.4884Z" fill="#0E8E6D"/>
<path d="M151.844 27.4899C151.844 25.609 150.849 24.1219 149.078 23.4767C146.902 22.6894 144.715 22.7331 142.582 23.6189C141.215 24.1875 140.275 25.1935 139.958 26.6916C139.914 26.9103 139.794 27.1509 140.209 27.14C141.15 27.14 142.09 27.1618 143.031 27.1837C143.184 27.1837 143.315 27.1837 143.391 27.0197C143.873 26.123 144.736 25.9262 145.633 25.9043C147.722 25.8606 148.29 26.6916 148.192 28.3428C148.17 28.6271 148.115 28.7365 147.809 28.7474C146.956 28.7693 146.092 28.8349 145.239 28.8896C144.026 28.9661 142.823 29.0864 141.696 29.6113C140.308 30.2564 139.477 31.2953 139.389 32.848C139.291 34.5758 139.892 35.9645 141.456 36.8393C143.38 37.9219 146.727 37.572 147.962 35.5381C148.006 35.4725 148.061 35.3959 148.258 35.4615C148.258 35.8552 148.279 36.2817 148.247 36.7081C148.225 37.058 148.345 37.1783 148.706 37.1674C149.559 37.1455 150.423 37.1236 151.287 37.1674C151.779 37.1893 151.866 37.0252 151.855 36.566C151.833 33.5588 151.844 30.5298 151.844 27.4899ZM148.192 32.1373C148.115 33.1761 147.58 33.9087 146.639 34.3133C145.633 34.7507 144.594 34.8273 143.654 34.1821C142.681 33.5041 142.856 32.0826 143.938 31.5796C144.758 31.1969 145.655 31.2734 146.519 31.175C146.748 31.1531 146.978 31.175 147.208 31.175C148.258 31.0984 148.268 31.0984 148.192 32.1373Z" fill="#0E8E6D"/>
</svg>
