<svg width="184" height="64" viewBox="0 0 184 64" fill="none" xmlns="http://www.w3.org/2000/svg">
<path fill-rule="evenodd" clip-rule="evenodd" d="M59.8641 24.2364C56.5057 24.2364 54.4846 25.8772 54.4846 28.5793C54.4846 30.6707 55.6255 32.1183 59.3101 33.405L60.5162 33.8235C62.7983 34.6277 63.4832 35.3031 63.4832 36.4292C63.4832 37.8448 62.2443 38.7134 60.1576 38.7134C58.4621 38.7134 57.1254 38.1986 55.8537 37.0083C55.3321 36.4935 54.6476 36.4935 54.126 37.0083L54.0932 37.0407C53.6695 37.4586 53.6695 38.295 54.0932 38.7134C55.8214 40.354 57.7122 41.0297 60.1576 41.0297C63.8418 41.0297 66.0916 39.3245 66.0916 36.3969C66.0916 34.1129 64.9503 32.8259 61.3965 31.5712L60.2227 31.1531C57.8102 30.2845 57.0927 29.6088 57.0927 28.483C57.0927 27.3248 58.1687 26.5526 59.8641 26.5526C61.2661 26.5526 62.3746 27.0353 63.5484 28.0649C64.07 28.5473 64.7873 28.515 65.3088 28.0002L65.3417 27.9683C65.7653 27.5501 65.7653 26.7135 65.3088 26.3273C63.7114 24.8797 62.0812 24.2364 59.8641 24.2364ZM94.9787 34.0807V34.4669C94.9787 36.9116 93.2181 38.7131 90.3814 38.7131C88.1643 38.7131 86.8277 37.7159 86.8277 35.8821C86.8277 34.113 88.2623 33.0835 90.7401 33.0835H94.9787V34.0807ZM91.1642 24.2364C89.1425 24.2364 87.2514 24.7831 85.4256 26.6169C85.0019 27.0673 85.0019 27.9359 85.4256 28.354L85.4908 28.4187C85.9801 28.9011 86.6973 28.9011 87.1862 28.3864C88.523 26.9707 89.8274 26.5526 91.1641 26.5526C93.544 26.5526 94.9787 27.8716 94.9787 30.0592V30.8635H90.7401C86.6321 30.8635 84.2196 32.6973 84.2196 35.8821C84.2196 38.874 86.5341 41.0297 89.7947 41.0297C92.1095 41.0297 93.9029 40.1288 95.0115 38.6811V39.3888C95.0115 40.0321 95.5655 40.5792 96.2504 40.5792H96.3155C96.9675 40.5792 97.522 40.0321 97.522 39.3569V30.0592C97.522 26.424 95.1417 24.2364 91.1642 24.2364ZM160.611 34.0807V34.4669C160.611 36.9116 158.85 38.7131 156.013 38.7131C153.796 38.7131 152.46 37.7159 152.46 35.8821C152.46 34.113 153.894 33.0835 156.372 33.0835H160.611V34.0807ZM156.796 24.2364C153.373 24.2364 150.699 26.2311 150.699 27.5497C150.699 27.8716 150.797 28.1935 151.025 28.4187L151.09 28.483C151.319 28.7083 151.579 28.8045 151.906 28.8045C152.46 28.8045 152.851 28.3864 153.373 27.8716C154.025 27.2283 155.068 26.5526 156.796 26.5526C159.176 26.5526 160.611 27.8716 160.611 30.0592V30.8635H156.372C152.264 30.8635 149.852 32.6973 149.852 35.8821C149.852 38.874 152.166 41.0297 155.427 41.0297C157.742 41.0297 159.535 40.1288 160.643 38.6811V39.3888C160.643 40.0321 161.198 40.5792 161.882 40.5792H161.947C162.6 40.5792 163.154 40.0321 163.154 39.3569V30.0592C163.154 26.424 160.774 24.2364 156.796 24.2364H156.796ZM128.463 34.0163C128.137 36.9759 126.637 38.7134 123.899 38.7134C120.801 38.7134 119.269 36.461 119.269 32.6329C119.269 28.8045 120.801 26.5526 123.899 26.5526C126.67 26.5526 128.17 28.3544 128.463 31.3782V34.0163ZM131.006 36.3648V17.2874C131.006 16.6121 130.452 16.0649 129.767 16.0649H129.702C129.018 16.0649 128.463 16.6121 128.463 17.2874V26.5207C127.322 25.0407 125.626 24.2364 123.377 24.2364C119.04 24.2364 116.66 27.3249 116.66 32.633C116.66 37.9412 119.04 41.0297 123.377 41.0297C125.789 41.0297 127.583 40.0969 128.691 38.3916C129.148 39.7427 130.224 40.8045 131.267 40.8045C131.952 40.8045 132.539 40.3221 132.539 39.614C132.539 38.3273 131.006 38.5202 131.006 36.365V36.3648ZM107.368 38.7133C104.271 38.7133 102.739 36.4614 102.739 32.7618V32.5042C102.739 28.8047 104.271 26.5528 107.368 26.5528C110.4 26.5528 111.998 28.8047 111.998 32.6328C111.998 36.4614 110.4 38.7133 107.368 38.7133ZM107.89 24.2362C105.64 24.2362 103.912 25.0728 102.771 26.5847V25.8771C102.771 25.2338 102.217 24.6866 101.565 24.6866H101.499C100.815 24.6866 100.26 25.2338 100.26 25.8771V45.7585C100.26 46.4343 100.815 46.9814 101.499 46.9814H101.565C102.249 46.9814 102.804 46.4343 102.804 45.7585V38.7133C103.945 40.2252 105.64 41.0295 107.89 41.0295C112.226 41.0295 114.606 37.9414 114.606 32.6328C114.606 27.3247 112.226 24.2362 107.89 24.2362ZM140.918 26.5527C143.82 26.5527 145.287 28.2578 145.45 31.2497H136.451C136.777 28.2897 138.244 26.5527 140.918 26.5527H140.918ZM147.308 37.4264C146.787 36.944 146.069 36.8794 145.482 37.3298C144.211 38.2951 143.07 38.7132 141.44 38.7132C138.309 38.7132 136.614 36.7508 136.418 33.4694H146.428C147.374 33.4694 148.058 32.7937 148.058 31.8608C148.058 27.0994 145.743 24.2365 140.918 24.2365C136.223 24.2365 133.778 27.357 133.778 32.6332C133.778 37.9089 136.418 41.0298 141.44 41.0298C143.82 41.0298 145.482 40.4507 147.243 39.035C147.732 38.6488 147.764 37.8769 147.341 37.4588L147.308 37.4264ZM70.982 39.3567V31.4104C70.982 28.3863 72.5144 26.5525 75.3835 26.5525C78.155 26.5525 79.3614 28.0967 79.3614 31.1852V39.3566C79.3614 40.0323 79.9156 40.5791 80.6003 40.5791H80.6655C81.3502 40.5791 81.9044 40.0323 81.9044 39.3566V31.1209C81.9044 26.4561 80.0786 24.2363 75.9707 24.2363C73.7208 24.2363 72.0255 25.0728 70.9492 26.5848V25.8772C70.9492 25.2338 70.3953 24.6867 69.7432 24.6867H69.6781C68.9933 24.6867 68.4388 25.2338 68.4388 25.8771V39.3566C68.4388 40.0323 68.9933 40.5791 69.6781 40.5791H69.7432C70.4277 40.5791 70.9821 40.0323 70.9821 39.3566L70.982 39.3567ZM168.696 40.8044C169.381 40.8044 169.968 40.322 169.968 39.6139C169.968 38.3272 168.436 38.5201 168.436 36.3648V17.2874C168.436 16.6121 167.881 16.0649 167.197 16.0649H167.131C166.447 16.0649 165.892 16.6121 165.892 17.2874V37.0407C165.892 38.9388 167.294 40.8045 168.696 40.8045" fill="black"/>
<path fill-rule="evenodd" clip-rule="evenodd" d="M21.0315 46.1772C21.3901 46.7887 21.7815 47.0139 22.4987 47.0139H35.8662C36.5837 47.0139 36.9747 46.8206 37.4313 46.2415L47.5388 33.373C47.7667 33.0834 47.506 32.601 47.1474 32.601H30.9431C30.226 32.601 29.8346 32.3758 29.476 31.7648L21.3249 17.8667C21.1294 17.545 20.6077 17.6096 20.477 17.931L14.1848 32.9549C13.8914 33.6306 13.9566 34.081 14.3152 34.692L21.0315 46.1772Z" fill="#F2324B"/>
<path fill-rule="evenodd" clip-rule="evenodd" d="M37.8568 29.5762C38.2156 30.1876 38.6069 30.4127 39.3241 30.4127H47.149C47.5403 30.4127 47.8337 29.93 47.6383 29.5762L40.1719 16.8367C39.8133 16.2252 39.4219 16 38.7048 16H23.7718C23.3808 16 23.0874 16.4824 23.2829 16.8367L27.1629 23.4638C27.5216 24.0748 27.9125 24.3 28.6301 24.3H34.7919L37.8568 29.5762Z" fill="#F2324B"/>
</svg>
