<svg width="184" height="64" viewBox="0 0 184 64" fill="none" xmlns="http://www.w3.org/2000/svg">
<path d="M61 14V16.8246H63.6779V23.7046H67.4041V16.8246H70.082V14H61ZM73.083 14L69.2995 23.7046H73.0758L75.1292 17.8278L77.1969 23.6974H80.9661L77.1969 14H73.083ZM80.1907 14V16.8246H82.8614V23.7046H86.5876V16.8246H89.2655V14H80.1907ZM92.2665 14L88.4758 23.7046H92.2594L94.3199 17.8349L96.3804 23.7046H100.157L96.3804 14H92.2665ZM61 38.2685C61 31.7087 64.5754 28.5568 70.8215 28.5568C74.6123 28.5568 77.0963 29.8873 78.3815 31.545C78.6327 31.8723 78.7261 32.1498 78.7261 32.4557C78.7261 33.2597 77.9722 33.9214 77.0317 33.9214C76.5938 33.9214 76.1558 33.7577 75.7466 33.3664C74.4615 32.1213 73.1117 31.4312 70.8215 31.4312C66.6502 31.4312 64.762 33.7008 64.762 38.2685C64.762 43.1137 66.6431 45.0774 70.8215 45.0774C73.1405 45.0774 74.3969 44.6078 75.9046 43.2489C76.4071 42.8077 76.8163 42.6441 77.2543 42.6441C78.1948 42.6441 78.9486 43.3058 78.9486 44.1382C78.9486 44.4441 78.8338 44.7358 78.6327 44.9706C77.1251 46.7422 74.1815 47.9588 70.8215 47.9588C64.5754 47.9588 61 45.0489 61 38.2685ZM90.4358 44.8781C91.2758 44.8497 91.9722 45.5042 92.0009 46.3367C92.0009 46.3651 92.0009 46.3865 92.0009 46.4149C92.0009 47.3043 91.3547 47.9588 90.4358 47.9588H82.1722C81.2461 47.9588 80.5784 47.2758 80.5784 46.3651V30.2075C80.5784 29.2968 81.3035 28.5568 82.2009 28.5568C83.0984 28.5568 83.8163 29.2968 83.8163 30.2075V44.8781H90.4358ZM98.527 46.2442C98.527 47.1904 97.7947 47.9588 96.8973 47.9588C95.9999 47.9588 95.2676 47.1904 95.2676 46.2442V35.1167C95.2676 34.1704 95.9999 33.402 96.8973 33.402C97.8019 33.402 98.527 34.1704 98.527 35.1167V46.2442ZM121.307 49.5739C120.855 49.5739 120.432 49.396 120.116 49.083L117.84 46.8205L117.179 47.2189C117.043 47.3043 116.906 47.3825 116.763 47.4537L116.705 47.4821C115.7 47.9944 114.616 48.3502 113.496 48.528C112.994 48.6063 112.477 48.649 111.967 48.649C111.113 48.649 110.265 48.5423 109.44 48.343C108.169 48.0086 106.977 47.4466 105.915 46.6782C104.852 45.9169 103.955 44.9493 103.273 43.8394C103.093 43.5548 102.928 43.2631 102.777 42.9572C102.375 42.1176 102.088 41.2211 101.937 40.3033L101.923 40.2108L101.901 40.1041L101.88 39.9405C101.822 39.4994 101.786 39.0583 101.786 38.61C101.786 37.7776 101.894 36.9523 102.102 36.1483C102.44 34.889 103.021 33.7079 103.811 32.6621C104.601 31.6162 105.584 30.7268 106.719 30.0509C107.157 29.7806 107.623 29.5387 108.112 29.3395C108.88 29.0264 109.684 28.7987 110.51 28.6707C111.874 28.4643 113.266 28.5426 114.602 28.8983L114.631 28.9055C114.738 28.9339 114.839 28.9624 114.932 28.9908L114.968 28.998C117.086 29.6667 118.924 30.9972 120.202 32.7901C120.36 33.0107 120.489 33.2099 120.597 33.402C121.121 34.2558 121.508 35.1736 121.753 36.127C121.853 36.5112 121.932 36.9167 121.982 37.3507C122.126 38.5887 122.047 39.8409 121.76 41.0575C121.516 42.0251 121.128 42.95 120.611 43.8038L120.216 44.4513L122.499 46.7209C123.167 47.3825 123.167 48.4284 122.499 49.0901C122.183 49.396 121.753 49.5739 121.307 49.5739ZM112.053 31.3031C111.68 31.3031 111.314 31.3316 110.94 31.3885C109.95 31.5379 109.002 31.8794 108.148 32.3846L108.126 32.3988C107.279 32.9395 106.597 33.5656 106.037 34.3127C105.455 35.0669 105.032 35.9349 104.802 36.8527C104.543 37.7705 104.486 38.7381 104.644 39.6772C104.795 40.6733 105.125 41.5484 105.642 42.3666C106.13 43.1635 106.798 43.875 107.566 44.4228C109.648 45.9667 112.398 46.3082 114.803 45.3193C116.038 44.807 117.1 43.9674 117.883 42.886C118.436 42.1603 118.838 41.3065 119.075 40.3603C119.304 39.3998 119.355 38.4393 119.218 37.5001C118.902 35.5578 117.89 33.8645 116.361 32.7261C115.119 31.8012 113.611 31.3031 112.053 31.3031Z" fill="black"/>
<path d="M99.5689 29.9793C100.359 30.7619 100.359 32.0355 99.5689 32.8181C98.7792 33.6007 97.4941 33.6007 96.7043 32.8181L94.2274 30.3564C93.4592 29.5524 93.4951 28.286 94.3064 27.5247C95.089 26.7919 96.3095 26.7919 97.092 27.5247L99.5689 29.9793Z" fill="#FF1744"/>
</svg>
