<svg width="184" height="64" viewBox="0 0 184 64" fill="none" xmlns="http://www.w3.org/2000/svg">
<path d="M46.4199 32.4944C46.4199 35.5345 47.5766 37.6857 51.0173 37.6857C53.4792 37.6857 54.8732 36.1656 54.8732 36.1656L55.0809 36.9113C55.1699 37.1981 55.2885 37.3988 55.6148 37.3988H56.1784C56.475 37.3988 56.7419 37.1407 56.7419 36.8539V26.4712C56.7419 26.1844 56.475 25.9263 56.1784 25.9263H55.2589C54.9623 25.9263 54.6953 26.1844 54.6953 26.4712V34.1291C54.6953 34.1291 53.4199 35.764 51.1656 35.764C49.5046 35.764 48.4962 34.7028 48.4962 32.523V26.4712C48.4962 26.1844 48.2292 25.9263 47.9326 25.9263H46.9834C46.6868 25.9263 46.4199 26.1844 46.4199 26.4712V32.4944Z" fill="#08BD80"/>
<path fill-rule="evenodd" clip-rule="evenodd" d="M77.6286 30.1139C74.5735 30.1139 72.8828 31.7488 72.8828 33.9286C72.8828 36.2231 74.4548 37.6859 76.5311 37.6859C78.3701 37.6859 79.5862 36.7968 80.2091 36.1944L80.4464 36.9688C80.5353 37.227 80.6243 37.3991 80.9506 37.3991H81.5142C81.8108 37.3991 82.0777 37.141 82.0777 36.8541V30.4868C82.0777 27.1311 81.3362 25.6396 78.3107 25.6396C76.0862 25.6396 74.3659 26.2993 74.1879 26.3854C73.9209 26.5001 73.743 26.6722 73.8616 27.0164L74.0989 27.7334C74.1879 27.9915 74.3659 28.1349 74.6625 28.0202C75.1963 27.8194 76.5905 27.3892 78.2218 27.3892C79.9125 27.3892 80.1794 28.3644 80.1498 30.4868C80.1498 30.4868 78.904 30.1139 77.6286 30.1139ZM76.8569 35.965C75.5816 35.965 74.7806 35.0759 74.7806 33.9285C74.7806 32.4371 75.9671 31.6341 77.6281 31.6341C78.9332 31.6341 79.7638 31.8922 80.1196 32.093V34.3588C79.6154 35.0759 78.34 35.965 76.8569 35.965Z" fill="#2D81F7"/>
<path d="M84.8379 31.6915C84.8379 35.1333 87.626 37.6859 90.9183 37.6859C92.9353 37.6859 94.5667 36.6533 95.4565 35.2767C95.6345 34.9898 95.5454 34.6744 95.2488 34.4736L94.9226 34.2441C94.5963 34.0147 94.3887 33.9573 94.0327 34.3015C93.3506 34.9325 92.6683 35.7928 90.8887 35.7928C88.6641 35.7928 86.9735 33.9573 86.9735 31.6627C86.9735 29.3682 88.6937 27.59 90.9183 27.59C92.0751 27.59 93.054 28.1349 93.6472 28.7946C93.9141 29.0241 94.0624 29.3109 94.5073 28.9093L95.0709 28.4504C95.3378 28.2497 95.3971 27.9055 95.1895 27.6474C94.1218 26.328 92.7276 25.6396 90.9481 25.6396C87.715 25.6396 84.8379 28.307 84.8379 31.6915Z" fill="#2D81F7"/>
<path fill-rule="evenodd" clip-rule="evenodd" d="M103.056 30.1139C100.001 30.1139 98.3105 31.7488 98.3105 33.9286C98.3105 36.2231 99.8826 37.6859 101.959 37.6859C103.798 37.6859 105.014 36.7968 105.637 36.1944L105.874 36.9688C105.963 37.227 106.052 37.3991 106.378 37.3991H106.942C107.239 37.3991 107.505 37.141 107.505 36.8541V30.4868C107.505 27.1311 106.764 25.6396 103.738 25.6396C101.514 25.6396 99.7936 26.2993 99.6157 26.3854C99.3487 26.5001 99.1707 26.6722 99.2894 27.0164L99.5266 27.7334C99.6157 27.9915 99.7936 28.1349 100.09 28.0202C100.624 27.8194 102.018 27.3892 103.65 27.3892C105.34 27.3892 105.607 28.3644 105.578 30.4868C105.578 30.4868 104.332 30.1139 103.056 30.1139ZM102.284 35.965C101.008 35.965 100.208 35.0759 100.208 33.9285C100.208 32.4371 101.394 31.6341 103.055 31.6341C104.36 31.6341 105.191 31.8922 105.547 32.093V34.3588C105.042 35.0759 103.767 35.965 102.284 35.965Z" fill="#2D81F7"/>
<path fill-rule="evenodd" clip-rule="evenodd" d="M115.962 25.6392C112.403 25.6392 110.268 28.2779 110.268 31.6337C110.268 34.932 112.641 37.6855 115.666 37.6855C117.89 37.6855 119.315 36.1654 119.315 36.1654L119.492 36.9397C119.551 37.1978 119.73 37.3986 119.996 37.3986H120.619C120.916 37.3986 121.183 37.1405 121.183 36.8537V20.5689C121.183 20.2821 120.916 20.0239 120.619 20.0239H119.7C119.403 20.0239 119.136 20.2821 119.136 20.5689V26.385C119.136 26.385 117.92 25.6392 115.962 25.6392ZM115.872 35.8784C113.708 35.8784 112.343 33.8994 112.343 31.6622C112.343 29.3677 113.648 27.5607 116.229 27.5607C117.86 27.5607 119.106 28.2491 119.106 28.2491V33.9854C119.106 33.9854 118.008 35.8784 115.872 35.8784Z" fill="#2D81F7"/>
<path fill-rule="evenodd" clip-rule="evenodd" d="M129.757 25.6396C126.168 25.6396 123.943 28.4218 123.943 31.6627C123.943 34.9611 126.168 37.6859 129.757 37.6859C131.804 37.6859 133.406 36.9114 134.117 36.3665C134.562 36.051 134.444 35.879 134.236 35.6208C134.147 35.5061 134.065 35.3985 133.983 35.2909C133.903 35.1835 133.821 35.0759 133.732 34.9611C133.515 34.6734 133.348 34.7674 133.005 34.9602C132.972 34.9788 132.938 34.9983 132.902 35.0185C132.219 35.42 131.211 35.879 129.964 35.879C127.859 35.879 126.109 34.072 125.99 32.1504H134.532C134.8 32.1504 135.036 31.9496 135.066 31.6627C135.096 31.4619 135.126 31.0891 135.126 30.8884C135.126 27.8768 132.872 25.6396 129.757 25.6396ZM133.077 30.5442H126.018C126.226 28.7659 127.769 27.3892 129.756 27.3892C131.565 27.3892 132.988 28.8807 133.077 30.5442Z" fill="#2D81F7"/>
<path d="M137.889 36.8541C137.889 37.141 138.155 37.3991 138.453 37.3991H139.372C139.668 37.3991 139.936 37.141 139.936 36.8541V29.1962C139.936 29.1962 141.21 27.5613 143.317 27.5613C145.125 27.5613 146.134 28.6225 146.134 30.8024V36.8541C146.134 37.141 146.401 37.3991 146.698 37.3991H147.647C147.944 37.3991 148.21 37.141 148.21 36.8541V30.8024C148.21 30.2 148.151 29.6551 148.062 29.1675C148.478 28.7946 149.753 27.5613 151.681 27.5613C153.401 27.5613 154.35 28.6512 154.35 30.8024V36.8541C154.35 37.141 154.617 37.3991 154.914 37.3991H155.863C156.159 37.3991 156.427 37.141 156.427 36.8541V30.8024C156.427 27.8194 155.27 25.6396 151.829 25.6396C149.457 25.6396 147.558 27.3892 147.41 27.5039C146.638 26.2993 145.363 25.6396 143.613 25.6396C141.151 25.6396 139.757 27.1598 139.757 27.1598L139.49 26.2706C139.431 26.0412 139.283 25.9265 139.015 25.9265H138.453C138.155 25.9265 137.889 26.1846 137.889 26.4714V36.8541Z" fill="#2D81F7"/>
<path d="M164.773 37.3702L162.37 43.2595C162.163 43.6611 162.4 43.9766 162.844 43.9766H163.942C164.15 43.9766 164.357 43.8045 164.446 43.6324L172.158 26.5859C172.366 26.2131 172.158 25.9263 171.713 25.9263H170.586C170.378 25.9263 170.171 26.0697 170.082 26.2418L165.929 35.0183L161.51 26.2418C161.421 26.0697 161.243 25.9263 161.005 25.9263H159.701C159.256 25.9263 159.078 26.1844 159.256 26.5573L164.773 37.3702Z" fill="#2D81F7"/>
<path d="M59.5 36.8541C59.5 37.141 59.767 37.3991 60.0636 37.3991H60.9831C61.2797 37.3991 61.5466 37.141 61.5466 36.8541V29.1962C61.5466 29.1962 63.1483 27.5613 65.3728 27.5613C67.0338 27.5613 68.0423 28.6225 68.0423 30.8024V36.8541C68.0423 37.141 68.3093 37.3991 68.6059 37.3991H69.555C69.8517 37.3991 70.1186 37.141 70.1186 36.8541V30.8024C70.1186 27.8194 68.9618 25.6396 65.5211 25.6396C63.0593 25.6396 61.3686 27.1598 61.3686 27.1598L61.1017 26.2706C61.0423 26.0412 60.894 25.9265 60.6271 25.9265H60.0636C59.767 25.9265 59.5 26.1846 59.5 26.4714V36.8541Z" fill="#08BD80"/>
<path d="M11.9096 22.2507C13.0118 29.0124 19.0703 34.1836 26.379 34.1836C33.6137 34.1836 39.6234 29.1166 40.8133 22.4554C40.9657 21.83 41.0287 21.3306 41.0094 20.9026C41.0094 20.4123 40.6459 20.0317 40.1419 20.0317H39.3241H13.5713H12.6288C12.1251 20.0317 11.7617 20.4118 11.7612 20.9015C11.7601 20.9015 11.7589 20.9014 11.7578 20.9014C11.7585 20.9123 11.7592 20.9233 11.7599 20.9342C11.7468 21.307 11.7952 21.7341 11.9096 22.2507Z" fill="#2D81F7"/>
<path d="M33.5712 42.8459C33.02 39.4651 29.9908 36.8794 26.3365 36.8794C22.7191 36.8794 19.7142 39.413 19.1193 42.7436C19.0431 43.0562 19.0116 43.3059 19.0212 43.5199C19.0212 43.765 19.203 43.9553 19.455 43.9553H19.8639H32.7403H33.2116C33.4634 43.9553 33.6451 43.7653 33.6454 43.5205C33.6459 43.5205 33.6465 43.5205 33.647 43.5205C33.6467 43.515 33.6463 43.5096 33.646 43.5041C33.6526 43.3177 33.6283 43.1041 33.5712 42.8459Z" fill="#08BD80"/>
</svg>
