<svg width="80" height="80" viewBox="0 0 80 80" fill="none" xmlns="http://www.w3.org/2000/svg">
<path fill-rule="evenodd" clip-rule="evenodd" d="M40 80C62.0914 80 80 62.0914 80 40C80 17.9086 62.0914 0 40 0C17.9086 0 0 17.9086 0 40C0 62.0914 17.9086 80 40 80Z" fill="#C8DDFE"/>
<g clip-path="url(#clip0_2541_5346)">
<rect x="35.1719" y="27.5864" width="12.4138" height="15.1724" fill="#5D8EEF"/>
<ellipse cx="39.9996" cy="24.1383" rx="2.06896" ry="2.06897" fill="#5D8EEF"/>
<circle cx="30.3444" cy="28.276" r="2.06897" fill="#5D8EEF"/>
<ellipse cx="26.2057" cy="37.2418" rx="2.06897" ry="2.06896" fill="#5D8EEF"/>
<ellipse cx="30.3444" cy="47.5865" rx="2.06897" ry="2.06896" fill="#5D8EEF"/>
<circle cx="39.3092" cy="51.0348" r="2.06897" fill="#5D8EEF"/>
<ellipse cx="53.1031" cy="37.2418" rx="2.06897" ry="2.06896" fill="#5D8EEF"/>
<ellipse cx="48.9645" cy="28.276" rx="2.06897" ry="2.06897" fill="#5D8EEF"/>
<path d="M50.1665 44.36C51.6154 44.2291 53.2639 43.5589 55.0684 42.3704C55.7321 41.9315 56.5054 41.7001 57.3039 41.7001C58.0663 41.7001 58.8002 41.9242 59.4455 42.3265C59.8025 40.819 60.0114 39.2543 60.0114 37.6377C60.0114 26.4231 50.9202 17.2417 39.7056 17.2417C28.4909 17.2417 19.3096 26.4231 19.3096 37.6377C19.3096 48.8524 28.4909 57.9435 39.7056 57.9435C42.513 57.9435 45.1872 57.3734 47.6193 56.3432C46.8955 54.3957 46.4742 52.3266 46.4742 50.2165V48.4054C46.4742 46.2915 48.0619 44.5517 50.1665 44.36ZM53.2428 36.284C53.9904 36.284 54.5965 36.8899 54.5965 37.6377C54.5965 38.3853 53.9904 38.9914 53.2428 38.9914C52.4952 38.9914 51.889 38.3853 51.889 37.6377C51.889 36.8899 52.4952 36.284 53.2428 36.284ZM48.3206 27.1082C48.8493 26.5796 49.7064 26.5796 50.2351 27.1082C50.7637 27.6369 50.7637 28.494 50.2351 29.0227C49.7064 29.5513 48.8493 29.5513 48.3206 29.0227C47.7919 28.494 47.7919 27.6369 48.3206 27.1082ZM39.7056 22.7468C40.4532 22.7468 41.0593 23.3529 41.0593 24.1005C41.0593 24.8481 40.4532 25.4543 39.7056 25.4543C38.958 25.4543 38.3519 24.8481 38.3519 24.1005C38.3519 23.3529 38.958 22.7468 39.7056 22.7468ZM26.1684 38.9914C25.4208 38.9914 24.8147 38.3853 24.8147 37.6377C24.8147 36.8899 25.4208 36.284 26.1684 36.284C26.916 36.284 27.5221 36.8899 27.5221 37.6377C27.5221 38.3853 26.916 38.9914 26.1684 38.9914ZM31.0905 48.1672C30.5619 48.6959 29.7048 48.6959 29.1761 48.1672C28.6474 47.6384 28.6474 46.7813 29.1761 46.2526C29.7048 45.7239 30.5619 45.7239 31.0905 46.2526C31.6193 46.7813 31.6193 47.6384 31.0905 48.1672ZM31.0905 29.0227C30.5619 29.5513 29.7048 29.5513 29.1761 29.0227C28.6474 28.494 28.6474 27.6369 29.1761 27.1082C29.7048 26.5796 30.5619 26.5796 31.0905 27.1082C31.6193 27.6369 31.6193 28.494 31.0905 29.0227ZM39.7056 52.5286C38.958 52.5286 38.3519 51.9225 38.3519 51.1749C38.3519 50.4271 38.958 49.8212 39.7056 49.8212C40.4532 49.8212 41.0593 50.4271 41.0593 51.1749C41.0593 51.9225 40.4532 52.5286 39.7056 52.5286ZM45.1205 38.9914H41.0593V40.3451C41.0593 41.0934 40.4538 41.6989 39.7056 41.6989C38.9573 41.6989 38.3519 41.0934 38.3519 40.3451V38.9914H36.9981C36.2499 38.9914 35.6444 38.386 35.6444 37.6377C35.6444 36.8895 36.2499 36.284 36.9981 36.284H38.3519V29.5154C38.3519 28.7672 38.9573 28.1617 39.7056 28.1617C40.4538 28.1617 41.0593 28.7672 41.0593 29.5154V36.284H45.1205C45.8687 36.284 46.4742 36.8895 46.4742 37.6377C46.4742 38.386 45.8687 38.9914 45.1205 38.9914Z" fill="white"/>
<path d="M64.2858 47.0569C62.1019 46.8586 59.8872 45.8413 58.0496 44.6304C57.5974 44.3315 57.0105 44.3315 56.5584 44.6304C54.7209 45.8413 52.5964 46.8586 50.4124 47.0569C49.7157 47.1203 49.1816 47.7047 49.1816 48.4052V50.2163C49.1816 55.5069 52.0384 60.6762 56.6377 63.274C56.8452 63.3904 57.0739 63.4486 57.3039 63.4486C57.534 63.4486 57.7627 63.3904 57.9702 63.274C62.5696 60.6763 65.5166 55.507 65.5166 50.2164V48.4053C65.5166 47.7047 64.9825 47.1203 64.2858 47.0569Z" fill="#5D8EEF"/>
<path d="M60.3135 50.6588C60.4592 50.52 60.6532 50.4433 60.8544 50.4448C61.0556 50.4464 61.2483 50.526 61.3919 50.6669C61.5355 50.8078 61.6188 50.999 61.6241 51.2002C61.6294 51.4013 61.5564 51.5966 61.4204 51.745L57.2928 56.907C57.2219 56.9835 57.1362 57.0448 57.041 57.0874C56.9457 57.13 56.8429 57.1529 56.7386 57.1549C56.6343 57.1568 56.5307 57.1377 56.434 57.0987C56.3372 57.0596 56.2493 57.0015 56.1756 56.9277L53.4383 54.1905C53.3621 54.1195 53.301 54.0338 53.2586 53.9386C53.2162 53.8435 53.1934 53.7407 53.1915 53.6365C53.1897 53.5324 53.2089 53.4289 53.2479 53.3323C53.2869 53.2357 53.345 53.1479 53.4187 53.0742C53.4923 53.0006 53.5801 52.9425 53.6767 52.9035C53.7733 52.8644 53.8768 52.8453 53.981 52.8471C54.0851 52.8489 54.1879 52.8718 54.283 52.9142C54.3782 52.9566 54.4639 53.0177 54.5349 53.0939L56.7011 55.2591L60.2939 50.6815C60.3003 50.6736 60.3072 50.666 60.3146 50.6588H60.3135Z" fill="white"/>
</g>
<defs>
<clipPath id="clip0_2541_5346">
<rect width="46.2069" height="46.2069" fill="white" transform="translate(19.3096 17.2417)"/>
</clipPath>
</defs>
</svg>
