<svg width="184" height="64" viewBox="0 0 184 64" fill="none" xmlns="http://www.w3.org/2000/svg">
<path d="M129.438 23.7212C129.763 23.8301 130.033 24.1024 130.304 24.3748C133.766 28.0239 137.228 31.673 140.637 35.3221C140.637 31.673 140.637 28.0239 140.637 24.3203C141.556 24.3203 142.476 24.3203 143.45 24.3203C143.558 24.6471 143.558 24.9739 143.558 25.3551C143.558 30.9105 143.558 36.4658 143.558 42.0212C143.504 42.0757 143.342 42.1301 143.288 42.1301C139.609 38.3176 135.984 34.4507 132.305 30.6382C132.251 34.2873 132.359 37.9364 132.251 41.5855C131.332 41.531 130.358 41.5855 129.438 41.5855C129.438 35.6489 129.384 29.6578 129.438 23.7212Z" fill="white"/>
<path d="M55.5915 24.1571C57.7555 23.3401 60.0818 23.9392 62.1917 24.5928C62.1917 25.9544 62.1917 27.316 62.1917 28.6776C60.8933 27.8606 59.4867 27.0981 57.9178 27.0437C57.1063 26.9892 56.1866 27.4794 56.1325 28.3508C56.0784 29.0044 56.6194 29.4946 57.1063 29.8214C58.9998 31.0196 61.1638 31.8365 62.6244 33.6339C64.4097 36.0847 63.4359 39.9517 60.7851 41.3133C58.3506 42.6204 55.3751 42.0758 52.8865 41.3133C52.7242 39.7883 52.6701 38.2633 52.5619 36.7383C54.0226 37.6642 55.6456 38.5356 57.4309 38.4812C58.1883 38.4267 59.0539 38.2089 59.4326 37.4464C59.8113 36.7928 59.5408 35.9214 58.9457 35.4856C57.2686 34.124 55.1587 33.5249 53.698 31.891C52.7783 30.9106 52.2914 29.4946 52.3996 28.133C52.5619 26.3356 53.9144 24.7562 55.5915 24.1571Z" fill="white"/>
<path d="M117.32 25.7364C117.644 25.0283 117.915 24.3203 118.348 23.7212C121.107 29.6578 123.758 35.6489 126.463 41.6399C125.435 41.6399 124.407 41.6399 123.379 41.6399C122.892 40.6051 122.459 39.5703 122.026 38.5899C119.43 38.5899 116.887 38.5899 114.29 38.5899C113.857 39.6248 113.371 40.6596 112.884 41.6399C111.856 41.6399 110.882 41.6399 109.908 41.6399C112.397 36.3024 114.831 31.0194 117.32 25.7364ZM118.023 30.0391C117.158 32.0542 116.292 34.0694 115.372 36.0301C117.212 36.139 119.051 36.0301 120.89 36.0846C120.025 33.9605 119.105 31.8908 118.185 29.7667C118.185 29.8212 118.077 29.9846 118.023 30.0391Z" fill="white"/>
<path d="M19.9941 24.3745C21.6171 24.3745 23.186 24.3745 24.809 24.3745C26.0533 26.1718 27.1894 28.0236 28.4337 29.8754C29.732 28.0236 31.0304 26.2263 32.3288 24.3745C33.7354 24.3745 35.142 24.3745 36.5486 24.3745C34.4387 27.37 32.1124 30.3111 30.0566 33.3611C30.0025 36.1388 30.0566 38.862 30.0566 41.6397C28.7042 41.6397 27.4058 41.6397 26.0533 41.6397C26.0533 38.9165 26.1074 36.1932 25.9992 33.4156C23.9975 30.3656 21.9417 27.37 19.9941 24.3745Z" fill="white"/>
<path d="M38.2793 41.5855C38.2793 35.8123 38.2793 30.0935 38.2793 24.3203C41.7417 24.3203 45.204 24.3203 48.7205 24.3203C48.7205 25.5185 48.7205 26.6623 48.7205 27.8605C46.5565 27.9694 44.3925 27.806 42.1745 27.915C42.1745 28.9498 42.1745 29.9846 42.1745 31.0194C44.0138 31.0194 45.9073 31.0194 47.7467 31.0194C47.7467 32.1632 47.7467 33.3614 47.7467 34.5051C45.9073 34.5051 44.0138 34.5051 42.1745 34.5051C42.1745 35.6489 42.1745 36.7926 42.1745 37.8819C44.3925 37.8819 46.5565 37.8819 48.7746 37.8819C48.7746 39.0801 48.7746 40.2784 48.7746 41.531C45.2581 41.5855 41.7958 41.5855 38.2793 41.5855Z" fill="white"/>
<path d="M96.8691 24.3745C99.0331 24.4289 101.197 24.2655 103.361 24.4834C104.768 24.6468 106.282 25.1914 106.986 26.4986C107.743 27.9147 107.797 29.8754 106.715 31.1825C106.228 31.7816 105.579 32.0539 104.93 32.3807C106.174 32.7075 107.31 33.6334 107.689 34.8861C108.176 36.4111 108.014 38.2629 107.04 39.6245C105.958 41.0406 104.064 41.4763 102.333 41.5852C100.494 41.6397 98.7085 41.5852 96.8691 41.6397C96.8691 35.8664 96.8691 30.0932 96.8691 24.3745ZM99.7364 26.662C99.7364 28.2959 99.7364 29.9298 99.7364 31.5093C101.035 31.4548 102.441 31.7272 103.577 31.0191C104.93 30.2566 105.092 27.8602 103.686 27.0977C102.441 26.4441 101.035 26.7164 99.7364 26.662ZM99.7364 33.7968C99.7364 35.5941 99.7364 37.3914 99.7364 39.1888C101.035 39.1343 102.441 39.4066 103.632 38.8075C105.255 38.045 105.471 35.4307 104.064 34.3959C102.766 33.5245 101.143 33.9057 99.7364 33.7968Z" fill="white"/>
<path d="M148.913 41.5855C148.913 35.8123 148.859 30.0935 148.913 24.3203C149.887 24.3203 150.806 24.3203 151.78 24.3203C151.834 26.8801 151.78 29.4944 151.78 32.0542C154.214 29.4944 156.595 26.8801 159.029 24.3203C160.165 24.3203 161.302 24.3203 162.438 24.3203C159.895 27.098 157.298 29.8212 154.701 32.5989C157.569 35.5944 160.382 38.59 163.249 41.531C161.951 41.531 160.706 41.531 159.462 41.531C156.919 38.8623 154.377 36.1391 151.834 33.4703C151.834 36.1391 151.834 38.8623 151.834 41.531C150.86 41.5855 149.887 41.5855 148.913 41.5855Z" fill="white"/>
<path d="M97.5184 6.18365C98.3299 5.09437 99.1414 3.95061 100.007 2.86133C91.2969 18.3836 82.641 33.906 73.931 49.4283C71.767 53.3497 69.549 57.2167 67.385 61.1381C67.2227 61.0292 67.0063 60.9203 66.8981 60.7569C63.8144 57.5979 60.7848 54.4935 57.7012 51.389C59.8652 51.389 62.0291 51.389 64.2472 51.389C75.3376 36.3024 86.428 21.2703 97.5184 6.18365Z" fill="#C4261B"/>
<path d="M11.5 15.7146C37.5218 15.6602 63.4896 15.7146 89.5114 15.7146C80.8555 27.2066 72.2537 38.753 63.5978 50.245C46.2319 50.245 28.8659 50.245 11.5 50.245C11.5 38.6986 11.5 27.2066 11.5 15.7146ZM55.5911 24.1566C53.914 24.7012 52.5615 26.2807 52.4533 28.078C52.3451 29.4396 52.7779 30.8557 53.7517 31.8361C55.2124 33.4155 57.3763 34.0691 58.9993 35.4307C59.5944 35.8664 59.8649 36.7379 59.4862 37.3914C59.1075 38.1539 58.2419 38.3718 57.4845 38.4262C55.6993 38.4807 54.0763 37.6093 52.6156 36.6834C52.6697 38.2084 52.7779 39.7334 52.9402 41.2584C55.4829 42.0754 58.4042 42.5655 60.8387 41.2584C63.4896 39.8968 64.4634 36.0298 62.6781 33.5789C61.2174 31.8361 59.0534 30.9646 57.1599 29.7664C56.673 29.4396 56.1321 28.9495 56.1862 28.2959C56.1862 27.4245 57.1599 26.9343 57.9714 26.9887C59.5403 27.0432 60.9469 27.8057 62.2453 28.6227C62.2453 27.2611 62.2453 25.8995 62.2453 24.5379C60.0813 23.9387 57.755 23.3941 55.5911 24.1566ZM19.9936 24.3745C21.9412 27.4245 24.0511 30.3655 25.9987 33.4155C26.0528 36.1387 25.9987 38.862 26.0528 41.6396C27.4052 41.6396 28.7036 41.6396 30.0561 41.6396C30.0561 38.862 30.0561 36.1388 30.0561 33.3611C32.1119 30.3111 34.4382 27.4245 36.5481 24.3745C35.1415 24.3745 33.7349 24.3745 32.3283 24.3745C30.9758 26.1718 29.6774 28.0236 28.4331 29.8753C27.1888 28.078 26.0528 26.1718 24.8085 24.3745C23.1855 24.3745 21.5625 24.32 19.9936 24.3745ZM38.2792 41.5852C41.7957 41.5852 45.2581 41.5852 48.7745 41.5852C48.7745 40.387 48.7745 39.1887 48.7745 37.9361C46.5564 37.9361 44.3925 37.9361 42.1744 37.9361C42.1744 36.7923 42.1744 35.6486 42.1744 34.5593C44.0138 34.5593 45.9073 34.5593 47.7466 34.5593C47.7466 33.4155 47.7466 32.2173 47.7466 31.0736C45.9073 31.0191 44.0138 31.0736 42.1744 31.0736C42.1744 30.0387 42.1744 29.0039 42.1744 27.9691C44.3384 27.8057 46.5564 27.9691 48.7204 27.9146C48.6663 26.7164 48.7204 25.5727 48.7204 24.3745C45.2581 24.3745 41.7957 24.3745 38.2792 24.3745C38.2792 30.0932 38.2792 35.8664 38.2792 41.5852Z" fill="#005192"/>
<path d="M88.1048 25.7363C89.9982 22.414 91.7294 18.9827 93.677 15.7148C119.915 15.7148 146.208 15.7693 172.446 15.7148C172.554 27.2068 172.446 38.7532 172.5 50.2452C139.932 50.2452 107.31 50.2452 74.7422 50.2452C79.1242 42.0211 83.6686 33.9059 88.1048 25.7363ZM129.437 23.7211C129.383 29.6577 129.437 35.6488 129.437 41.5854C130.356 41.5854 131.33 41.5854 132.25 41.5854C132.304 37.9363 132.25 34.2872 132.304 30.6381C135.983 34.4506 139.607 38.372 143.286 42.13C143.34 42.0756 143.503 42.0211 143.557 42.0211C143.557 36.4657 143.557 30.9104 143.557 25.355C143.557 25.0282 143.503 24.7015 143.449 24.3202C142.529 24.3747 141.609 24.3202 140.635 24.3202C140.635 27.9693 140.635 31.6184 140.635 35.322C137.173 31.6729 133.711 28.0238 130.302 24.3747C130.032 24.1024 129.761 23.83 129.437 23.7211ZM117.318 25.7363C114.83 31.0193 112.395 36.3023 109.853 41.5854C110.827 41.5854 111.854 41.5854 112.828 41.5854C113.315 40.5506 113.748 39.5157 114.235 38.5354C116.832 38.5354 119.374 38.5354 121.971 38.5354C122.404 39.5702 122.837 40.605 123.324 41.5854C124.351 41.5854 125.379 41.5854 126.407 41.5854C123.702 35.5943 121.051 29.6032 118.292 23.6666C117.914 24.3202 117.697 25.0282 117.318 25.7363ZM96.8689 24.3747C96.8689 30.1479 96.8689 35.8666 96.8689 41.6398C98.7083 41.6398 100.494 41.6398 102.333 41.5854C104.01 41.4764 105.903 41.0952 107.04 39.6247C108.013 38.3175 108.176 36.4657 107.689 34.8863C107.31 33.6336 106.174 32.7077 104.93 32.3809C105.579 32.0541 106.282 31.7274 106.715 31.1827C107.797 29.8756 107.797 27.9149 106.985 26.4988C106.282 25.1916 104.713 24.647 103.361 24.4836C101.197 24.2113 99.0328 24.3747 96.8689 24.3747ZM148.913 41.5854C149.886 41.5854 150.86 41.5854 151.834 41.5854C151.834 38.9166 151.834 36.1934 151.834 33.5247C154.377 36.1934 156.919 38.9166 159.462 41.5854C160.76 41.5854 162.005 41.5854 163.249 41.5854C160.382 38.6443 157.568 35.5943 154.701 32.6532C157.298 29.8756 159.895 27.1524 162.437 24.3747C161.301 24.3747 160.165 24.3747 159.029 24.3747C156.595 26.9345 154.214 29.4943 151.78 32.1086C151.78 29.5488 151.78 26.9345 151.78 24.3747C150.806 24.3747 149.886 24.3747 148.913 24.3747C148.858 30.0934 148.913 35.8666 148.913 41.5854Z" fill="#005192"/>
<path d="M99.7377 26.6616C101.036 26.7161 102.443 26.4982 103.633 27.0973C105.094 27.8598 104.931 30.2563 103.525 31.0188C102.389 31.7268 100.982 31.5089 99.6836 31.5089C99.7377 29.875 99.7377 28.2955 99.7377 26.6616Z" fill="#005192"/>
<path d="M118.021 30.0389C118.075 29.9845 118.183 29.8211 118.237 29.7666C119.103 31.8907 120.022 33.9604 120.942 36.0845C119.103 36.0845 117.263 36.1389 115.424 36.03C116.289 34.0148 117.155 32.0541 118.021 30.0389Z" fill="#005192"/>
<path d="M99.7363 33.7965C101.197 33.851 102.82 33.4698 104.064 34.3957C105.525 35.4305 105.309 38.0448 103.631 38.8073C102.387 39.3519 101.035 39.134 99.7363 39.1885C99.7363 37.3912 99.7363 35.5939 99.7363 33.7965Z" fill="#005192"/>
</svg>
